<svg version="1.1" viewBox="0.0 0.0 731.2887139107612 336.04461942257217" fill="none" stroke="none" stroke-linecap="square" stroke-miterlimit="10" xmlns:xlink="http://www.w3.org/1999/xlink" xmlns="http://www.w3.org/2000/svg"><clipPath id="p.0"><path d="m0 0l731.2887 0l0 336.04462l-731.2887 0l0 -336.04462z" clip-rule="nonzero"/></clipPath><g clip-path="url(#p.0)"><path fill="#000000" fill-opacity="0.0" d="m0 0l731.2887 0l0 336.04462l-731.2887 0z" fill-rule="evenodd"/><path fill="#ffffff" d="m0 0l732.9764 0l0 337.95276l-732.9764 0z" fill-rule="evenodd"/><path stroke="#ffffff" stroke-width="1.0" stroke-linejoin="round" stroke-linecap="butt" d="m0 0l732.9764 0l0 337.95276l-732.9764 0z" fill-rule="evenodd"/><path fill="#cfe2f3" d="m10.866141 10.535433l716.4409 0l0 247.93701l-716.4409 0z" fill-rule="evenodd"/><path stroke="#000000" stroke-width="1.0" stroke-linejoin="round" stroke-linecap="butt" d="m10.866141 10.535433l716.4409 0l0 247.93701l-716.4409 0z" fill-rule="evenodd"/><path fill="#000000" fill-opacity="0.0" d="m10.866141 210.95276l716.4409 0l0 43.307083l-716.4409 0z" fill-rule="evenodd"/><path fill="#000000" d="m332.6961 241.60213q1.515625 0 2.3125 -0.578125q0.796875 -0.578125 0.796875 -1.734375q0 -0.6875 -0.296875 -1.171875q-0.28125 -0.5 -0.765625 -0.875q-0.484375 -0.375 -1.09375 -0.640625q-0.59375 -0.28125 -1.203125 -0.515625q-0.734375 -0.296875 -1.390625 -0.65625q-0.65625 -0.359375 -1.171875 -0.828125q-0.515625 -0.484375 -0.8125 -1.125q-0.296875 -0.65625 -0.296875 -1.546875q0 -1.953125 1.21875 -3.03125q1.21875 -1.09375 3.40625 -1.09375q0.59375 0 1.1875 0.078125q0.59375 0.078125 1.09375 0.203125q0.5 0.125 0.890625 0.296875q0.40625 0.15625 0.640625 0.328125l-0.625 1.65625q-0.46875 -0.28125 -1.3125 -0.5625q-0.84375 -0.296875 -1.875 -0.296875q-1.078125 0 -1.875 0.546875q-0.796875 0.53125 -0.796875 1.609375q0 0.625 0.234375 1.0625q0.234375 0.421875 0.625 0.75q0.390625 0.328125 0.921875 0.59375q0.53125 0.265625 1.15625 0.515625q0.90625 0.390625 1.65625 0.78125q0.765625 0.375 1.296875 0.90625q0.546875 0.53125 0.84375 1.25q0.3125 0.71875 0.3125 1.75q0 1.9375 -1.3125 2.984375q-1.3125 1.046875 -3.765625 1.046875q-0.78125 0 -1.484375 -0.109375q-0.6875 -0.109375 -1.234375 -0.265625q-0.53125 -0.171875 -0.953125 -0.34375q-0.40625 -0.171875 -0.625 -0.3125l0.609375 -1.640625q0.484375 0.265625 1.40625 0.625q0.9375 0.34375 2.28125 0.34375zm12.5155945 -0.03125q0.734375 0 1.328125 -0.046875q0.59375 -0.046875 0.96875 -0.109375l0 -3.3125q-0.375 -0.125 -0.921875 -0.1875q-0.546875 -0.078125 -1.140625 -0.078125q-0.546875 0 -1.078125 0.09375q-0.53125 0.078125 -0.9375 0.296875q-0.40625 0.203125 -0.671875 0.5625q-0.265625 0.34375 -0.265625 0.859375q0 1.09375 0.734375 1.515625q0.734375 0.40625 1.984375 0.40625zm-0.203125 -9.984375q1.25 0 2.09375 0.3125q0.859375 0.3125 1.390625 0.875q0.53125 0.546875 0.75 1.34375q0.21875 0.78125 0.21875 1.71875l0 6.96875q-0.703125 0.109375 -1.84375 0.28125q-1.140625 0.171875 -2.34375 0.171875q-0.90625 0 -1.78125 -0.15625q-0.859375 -0.15625 -1.53125 -0.546875q-0.671875 -0.40625 -1.078125 -1.09375q-0.40625 -0.703125 -0.40625 -1.78125q0 -0.953125 0.421875 -1.609375q0.421875 -0.671875 1.078125 -1.078125q0.65625 -0.40625 1.5 -0.578125q0.859375 -0.1875 1.734375 -0.1875q1.171875 0 2.296875 0.265625l0 -0.5625q0 -0.5 -0.109375 -0.96875q-0.109375 -0.46875 -0.40625 -0.84375q-0.296875 -0.390625 -0.8125 -0.609375q-0.515625 -0.234375 -1.328125 -0.234375q-1.03125 0 -1.8125 0.140625q-0.765625 0.140625 -1.171875 0.296875l-0.234375 -1.640625q0.40625 -0.1875 1.34375 -0.328125q0.953125 -0.15625 2.03125 -0.15625zm7.7812195 0.578125q1.078125 -0.265625 2.140625 -0.40625q1.078125 -0.140625 2.015625 -0.140625q2.234375 0 3.375 1.15625q1.140625 1.140625 1.140625 3.6875l0 6.53125l-1.96875 0l0 -6.171875q0 -1.078125 -0.203125 -1.75q-0.1875 -0.671875 -0.546875 -1.046875q-0.34375 -0.375 -0.828125 -0.515625q-0.484375 -0.140625 -1.0625 -0.140625q-0.484375 0 -1.03125 0.0625q-0.53125 0.0625 -1.03125 0.15625l0 9.40625l-2.0 0l0 -10.828125zm18.59372 2.046875q-0.328125 -0.3125 -0.984375 -0.578125q-0.640625 -0.28125 -1.34375 -0.28125q-0.78125 0 -1.34375 0.3125q-0.5625 0.296875 -0.921875 0.84375q-0.359375 0.546875 -0.53125 1.296875q-0.171875 0.75 -0.171875 1.625q0 1.9375 0.90625 3.0q0.921875 1.046875 2.375 1.046875q0.75 0 1.265625 -0.0625q0.515625 -0.078125 0.75 -0.15625l0 -7.046875zm0 -7.515625l2.0 -0.328125l0 16.3125q-0.65625 0.1875 -1.671875 0.375q-1.0 0.203125 -2.34375 0.203125q-1.1875 0 -2.171875 -0.40625q-0.984375 -0.40625 -1.6875 -1.15625q-0.6875 -0.765625 -1.078125 -1.84375q-0.390625 -1.078125 -0.390625 -2.421875q0 -1.296875 0.328125 -2.359375q0.328125 -1.078125 0.953125 -1.84375q0.625 -0.765625 1.5 -1.203125q0.875 -0.4375 2.0 -0.4375q0.890625 0 1.5625 0.21875q0.671875 0.21875 1.0 0.453125l0 -5.5625zm7.4062195 5.5625q0.359375 -0.203125 1.03125 -0.4375q0.6875 -0.234375 1.53125 -0.234375q1.125 0 2.015625 0.4375q0.890625 0.4375 1.5 1.203125q0.609375 0.765625 0.9375 1.84375q0.328125 1.0625 0.328125 2.359375q0 1.34375 -0.390625 2.421875q-0.390625 1.078125 -1.09375 1.84375q-0.6875 0.75 -1.671875 1.15625q-0.984375 0.40625 -2.171875 0.40625q-1.328125 0 -2.359375 -0.203125q-1.03125 -0.1875 -1.65625 -0.375l0 -15.984375l2.0 -0.328125l0 5.890625zm0 9.0q0.453125 0.125 0.90625 0.1875q0.453125 0.0625 0.859375 0.0625q1.65625 0 2.59375 -1.015625q0.9375 -1.03125 0.9375 -3.0625q0 -0.875 -0.171875 -1.625q-0.171875 -0.75 -0.53125 -1.296875q-0.359375 -0.546875 -0.921875 -0.84375q-0.5625 -0.3125 -1.34375 -0.3125q-0.703125 0 -1.359375 0.28125q-0.640625 0.265625 -0.96875 0.578125l0 7.046875zm19.34372 -3.828125q0 1.3125 -0.375 2.390625q-0.375 1.0625 -1.046875 1.828125q-0.671875 0.765625 -1.609375 1.1875q-0.9375 0.421875 -2.046875 0.421875q-1.078125 0 -2.0 -0.421875q-0.921875 -0.421875 -1.59375 -1.1875q-0.671875 -0.765625 -1.046875 -1.828125q-0.375 -1.078125 -0.375 -2.390625q0 -1.328125 0.375 -2.40625q0.375 -1.078125 1.046875 -1.828125q0.671875 -0.765625 1.59375 -1.1875q0.921875 -0.421875 2.0 -0.421875q1.109375 0 2.046875 0.421875q0.9375 0.421875 1.609375 1.1875q0.671875 0.75 1.046875 1.828125q0.375 1.078125 0.375 2.40625zm-2.046875 0q0 -1.90625 -0.8125 -2.984375q-0.8125 -1.09375 -2.21875 -1.09375q-1.359375 0 -2.171875 1.09375q-0.796875 1.078125 -0.796875 2.984375q0 1.859375 0.796875 2.953125q0.8125 1.09375 2.171875 1.09375q1.40625 0 2.21875 -1.09375q0.8125 -1.09375 0.8125 -2.953125zm12.1249695 5.5625q-0.25 -0.484375 -0.59375 -1.046875q-0.34375 -0.578125 -0.75 -1.1875q-0.40625 -0.625 -0.859375 -1.21875q-0.4375 -0.609375 -0.875 -1.125q-0.4375 0.546875 -0.921875 1.15625q-0.46875 0.59375 -0.921875 1.203125q-0.4375 0.609375 -0.828125 1.1875q-0.375 0.578125 -0.640625 1.03125l-2.03125 0q0.78125 -1.4375 1.921875 -2.953125q1.140625 -1.53125 2.25 -2.90625l-4.015625 -5.28125l2.234375 0l3.0 3.890625l2.765625 -3.890625l2.109375 0l-3.671875 5.171875q1.078125 1.40625 2.171875 2.953125q1.09375 1.53125 1.859375 3.015625l-2.203125 0z" fill-rule="nonzero"/><path fill="#e06666" d="m25.322834 29.128916l691.4961 0l0 77.543304l-691.4961 0z" fill-rule="evenodd"/><path stroke="#000000" stroke-width="1.0" stroke-linejoin="round" stroke-linecap="butt" d="m25.322834 29.128916l691.4961 0l0 77.543304l-691.4961 0z" fill-rule="evenodd"/><path fill="#000000" d="m311.56665 73.88057l0 1.5l-7.875 0l0 -13.203125l1.75 0l0 11.703125l6.125 0zm5.304718 -9.9375q-0.546875 0 -0.953125 -0.375q-0.40625 -0.390625 -0.40625 -1.046875q0 -0.65625 0.40625 -1.046875q0.40625 -0.390625 0.953125 -0.390625q0.578125 0 0.96875 0.390625q0.40625 0.390625 0.40625 1.046875q0 0.65625 -0.40625 1.046875q-0.390625 0.375 -0.96875 0.375zm-0.4375 3.015625l-2.859375 0l0 -1.46875l4.609375 0l0 6.078125q0 1.46875 0.390625 1.96875q0.40625 0.5 1.21875 0.5q0.625 0 1.140625 -0.140625q0.53125 -0.15625 0.828125 -0.328125l0.25 1.5q-0.125 0.0625 -0.359375 0.15625q-0.234375 0.09375 -0.546875 0.171875q-0.3125 0.09375 -0.6875 0.15625q-0.359375 0.0625 -0.765625 0.0625q-0.9375 0 -1.5625 -0.25q-0.609375 -0.265625 -0.984375 -0.765625q-0.375 -0.515625 -0.53125 -1.265625q-0.140625 -0.765625 -0.140625 -1.765625l0 -4.609375zm8.164124 -1.203125q0.953125 -0.234375 1.90625 -0.359375q0.953125 -0.125 1.78125 -0.125q1.984375 0 3.0 1.03125q1.015625 1.015625 1.015625 3.28125l0 5.796875l-1.75 0l0 -5.484375q0 -0.953125 -0.171875 -1.546875q-0.171875 -0.609375 -0.484375 -0.9375q-0.3125 -0.328125 -0.75 -0.453125q-0.4375 -0.125 -0.9375 -0.125q-0.4375 0 -0.921875 0.046875q-0.46875 0.046875 -0.921875 0.140625l0 8.359375l-1.765625 0l0 -9.625zm14.679749 -0.5q2.0 0 3.078125 1.25q1.09375 1.234375 1.09375 3.78125l0 0.609375l-7.078125 0q0.109375 1.546875 1.015625 2.34375q0.90625 0.796875 2.546875 0.796875q0.9375 0 1.59375 -0.140625q0.671875 -0.15625 1.0 -0.328125l0.234375 1.5q-0.3125 0.15625 -1.15625 0.34375q-0.828125 0.203125 -1.859375 0.203125q-1.28125 0 -2.265625 -0.390625q-0.96875 -0.390625 -1.609375 -1.078125q-0.625 -0.6875 -0.953125 -1.625q-0.3125 -0.953125 -0.3125 -2.0625q0 -1.328125 0.390625 -2.3125q0.40625 -0.984375 1.0625 -1.609375q0.671875 -0.640625 1.5 -0.953125q0.84375 -0.328125 1.71875 -0.328125zm2.375 4.21875q0 -1.265625 -0.65625 -2.0q-0.65625 -0.734375 -1.75 -0.734375q-0.609375 0 -1.125 0.234375q-0.5 0.234375 -0.859375 0.625q-0.359375 0.375 -0.578125 0.875q-0.203125 0.484375 -0.265625 1.0l5.234375 0zm8.195343 4.640625q0.65625 0 1.171875 -0.03125q0.53125 -0.046875 0.875 -0.109375l0 -2.9375q-0.34375 -0.109375 -0.828125 -0.171875q-0.46875 -0.0625 -1.0 -0.0625q-0.5 0 -0.96875 0.078125q-0.46875 0.0625 -0.828125 0.265625q-0.359375 0.1875 -0.59375 0.5q-0.234375 0.296875 -0.234375 0.765625q0 0.96875 0.640625 1.34375q0.65625 0.359375 1.765625 0.359375zm-0.171875 -8.859375q1.109375 0 1.859375 0.28125q0.765625 0.265625 1.234375 0.765625q0.46875 0.484375 0.65625 1.1875q0.203125 0.703125 0.203125 1.53125l0 6.1875q-0.625 0.109375 -1.640625 0.25q-1.015625 0.15625 -2.078125 0.15625q-0.8125 0 -1.578125 -0.140625q-0.765625 -0.140625 -1.359375 -0.484375q-0.59375 -0.359375 -0.96875 -0.96875q-0.359375 -0.625 -0.359375 -1.578125q0 -0.859375 0.375 -1.4375q0.375 -0.59375 0.953125 -0.953125q0.59375 -0.359375 1.34375 -0.515625q0.765625 -0.171875 1.53125 -0.171875q1.046875 0 2.046875 0.234375l0 -0.484375q0 -0.453125 -0.09375 -0.859375q-0.09375 -0.421875 -0.359375 -0.765625q-0.265625 -0.34375 -0.734375 -0.546875q-0.453125 -0.203125 -1.171875 -0.203125q-0.921875 0 -1.609375 0.140625q-0.671875 0.125 -1.046875 0.25l-0.203125 -1.453125q0.359375 -0.171875 1.203125 -0.296875q0.84375 -0.125 1.796875 -0.125zm7.679718 10.125l0 -9.359375q2.171875 -0.75 4.390625 -0.75q0.6875 0 1.296875 0.0625q0.625 0.046875 1.375 0.21875l-0.328125 1.546875q-0.671875 -0.1875 -1.203125 -0.234375q-0.515625 -0.0625 -1.140625 -0.0625q-1.296875 0 -2.640625 0.359375l0 8.21875l-1.75 0zm24.406372 -6.640625l2.046875 -6.5625l1.640625 0q0.421875 3.109375 0.59375 6.375q0.1875 3.265625 0.34375 6.828125l-1.703125 0q-0.03125 -1.15625 -0.046875 -2.5q-0.015625 -1.34375 -0.0625 -2.765625q-0.03125 -1.4375 -0.0625 -2.90625q-0.03125 -1.46875 -0.0625 -2.859375l-1.921875 6.015625l-1.546875 0l-1.953125 -6.015625q-0.015625 1.390625 -0.0625 2.859375q-0.03125 1.453125 -0.0625 2.890625q-0.03125 1.4375 -0.0625 2.78125q-0.03125 1.34375 -0.046875 2.5l-1.703125 0q0.0625 -1.625 0.140625 -3.328125q0.09375 -1.703125 0.203125 -3.390625q0.125 -1.6875 0.28125 -3.328125q0.15625 -1.640625 0.34375 -3.15625l1.625 0l2.078125 6.5625zm10.835968 -3.484375q2.0 0 3.078125 1.25q1.09375 1.234375 1.09375 3.78125l0 0.609375l-7.078125 0q0.109375 1.546875 1.015625 2.34375q0.90625 0.796875 2.546875 0.796875q0.9375 0 1.59375 -0.140625q0.671875 -0.15625 1.0 -0.328125l0.234375 1.5q-0.3125 0.15625 -1.15625 0.34375q-0.828125 0.203125 -1.859375 0.203125q-1.28125 0 -2.265625 -0.390625q-0.96875 -0.390625 -1.609375 -1.078125q-0.625 -0.6875 -0.953125 -1.625q-0.3125 -0.953125 -0.3125 -2.0625q0 -1.328125 0.390625 -2.3125q0.40625 -0.984375 1.0625 -1.609375q0.671875 -0.640625 1.5 -0.953125q0.84375 -0.328125 1.71875 -0.328125zm2.375 4.21875q0 -1.265625 -0.65625 -2.0q-0.65625 -0.734375 -1.75 -0.734375q-0.609375 0 -1.125 0.234375q-0.5 0.234375 -0.859375 0.625q-0.359375 0.375 -0.578125 0.875q-0.203125 0.484375 -0.265625 1.0l5.234375 0zm3.632843 -3.71875q1.28125 -0.484375 2.40625 -0.484375q0.625 0 1.15625 0.1875q0.546875 0.171875 0.9375 0.5625q0.921875 -0.75 1.96875 -0.75q0.5 0 0.953125 0.203125q0.46875 0.1875 0.8125 0.578125q0.359375 0.375 0.5625 0.953125q0.21875 0.5625 0.21875 1.34375l0 7.03125l-1.59375 0l0 -7.078125q0 -0.765625 -0.34375 -1.171875q-0.34375 -0.40625 -0.84375 -0.40625q-0.265625 0 -0.546875 0.125q-0.265625 0.125 -0.5 0.40625q0.125 0.484375 0.125 1.09375l0 3.21875l-1.609375 0l0 -3.25q0 -0.75 -0.234375 -1.171875q-0.234375 -0.421875 -0.90625 -0.421875q-0.4375 0 -0.96875 0.1875l0 8.46875l-1.59375 0l0 -9.625zm19.601624 4.671875q0 1.171875 -0.328125 2.125q-0.328125 0.953125 -0.9375 1.640625q-0.59375 0.671875 -1.421875 1.046875q-0.828125 0.375 -1.8125 0.375q-0.96875 0 -1.796875 -0.375q-0.8125 -0.375 -1.40625 -1.046875q-0.59375 -0.6875 -0.921875 -1.640625q-0.328125 -0.953125 -0.328125 -2.125q0 -1.171875 0.328125 -2.125q0.328125 -0.96875 0.921875 -1.640625q0.59375 -0.671875 1.40625 -1.03125q0.828125 -0.375 1.796875 -0.375q0.984375 0 1.8125 0.375q0.828125 0.359375 1.421875 1.03125q0.609375 0.671875 0.9375 1.640625q0.328125 0.953125 0.328125 2.125zm-1.8125 0q0 -1.6875 -0.734375 -2.65625q-0.71875 -0.96875 -1.953125 -0.96875q-1.21875 0 -1.9375 0.96875q-0.703125 0.96875 -0.703125 2.65625q0 1.671875 0.703125 2.640625q0.71875 0.96875 1.9375 0.96875q1.234375 0 1.953125 -0.96875q0.734375 -0.96875 0.734375 -2.640625zm4.9453735 4.953125l0 -9.359375q2.171875 -0.75 4.390625 -0.75q0.6875 0 1.296875 0.0625q0.625 0.046875 1.375 0.21875l-0.328125 1.546875q-0.671875 -0.1875 -1.203125 -0.234375q-0.515625 -0.0625 -1.140625 -0.0625q-1.296875 0 -2.640625 0.359375l0 8.21875l-1.75 0zm9.476593 1.859375q0.1875 0.109375 0.53125 0.171875q0.359375 0.0625 0.65625 0.0625q1.046875 0 1.625 -0.46875q0.59375 -0.453125 1.078125 -1.5q-1.1875 -2.265625 -2.234375 -4.84375q-1.046875 -2.59375 -1.71875 -5.171875l1.90625 0q0.21875 0.84375 0.5 1.84375q0.296875 0.984375 0.65625 2.03125q0.359375 1.046875 0.78125 2.109375q0.421875 1.046875 0.890625 2.015625q0.328125 -0.984375 0.625 -1.9375q0.3125 -0.96875 0.5625 -1.9375q0.25 -0.96875 0.5 -1.984375q0.265625 -1.015625 0.546875 -2.140625l1.828125 0q-0.671875 2.765625 -1.515625 5.375q-0.84375 2.59375 -1.8125 4.8125q-0.359375 0.859375 -0.78125 1.46875q-0.40625 0.625 -0.90625 1.03125q-0.484375 0.40625 -1.109375 0.59375q-0.609375 0.1875 -1.40625 0.1875q-0.40625 0 -0.890625 -0.109375q-0.46875 -0.09375 -0.640625 -0.1875l0.328125 -1.421875z" fill-rule="nonzero"/><path fill="#b6d7a8" d="m24.341208 151.29265l255.08662 0l0 86.645676l-255.08662 0z" fill-rule="evenodd"/><path stroke="#000000" stroke-width="1.0" stroke-linejoin="round" stroke-linecap="butt" d="m24.341208 151.29265l255.08662 0l0 86.645676l-255.08662 0z" fill-rule="evenodd"/><path fill="#000000" d="m92.38031 201.54861q-0.75 0.421875 -1.59375 0.625q-0.84375 0.203125 -1.796875 0.203125q-1.171875 0 -2.171875 -0.40625q-0.984375 -0.421875 -1.71875 -1.265625q-0.71875 -0.84375 -1.140625 -2.140625q-0.40625 -1.3125 -0.40625 -3.078125q0 -1.6875 0.4375 -2.96875q0.4375 -1.28125 1.171875 -2.15625q0.75 -0.875 1.75 -1.3125q1.015625 -0.453125 2.140625 -0.453125q0.78125 0 1.609375 0.21875q0.828125 0.203125 1.609375 0.703125l-0.515625 1.4375q-1.40625 -0.796875 -2.640625 -0.796875q-0.875 0 -1.578125 0.375q-0.6875 0.359375 -1.171875 1.0625q-0.484375 0.703125 -0.765625 1.6875q-0.265625 0.984375 -0.265625 2.203125q0 1.359375 0.28125 2.375q0.296875 1.0 0.8125 1.65625q0.515625 0.65625 1.21875 0.984375q0.71875 0.3125 1.5625 0.3125q0.609375 0 1.28125 -0.15625q0.6875 -0.15625 1.421875 -0.5625l0.46875 1.453125zm10.664108 -4.40625q0 1.171875 -0.328125 2.125q-0.328125 0.953125 -0.9375 1.640625q-0.59375 0.671875 -1.421875 1.046875q-0.828125 0.375 -1.8125 0.375q-0.96875 0 -1.796875 -0.375q-0.8125 -0.375 -1.40625 -1.046875q-0.59375 -0.6875 -0.921875 -1.640625q-0.328125 -0.953125 -0.328125 -2.125q0 -1.171875 0.328125 -2.125q0.328125 -0.96875 0.921875 -1.640625q0.59375 -0.671875 1.40625 -1.03125q0.828125 -0.375 1.796875 -0.375q0.984375 0 1.8125 0.375q0.828125 0.359375 1.421875 1.03125q0.609375 0.671875 0.9375 1.640625q0.328125 0.953125 0.328125 2.125zm-1.8125 0q0 -1.6875 -0.734375 -2.65625q-0.71875 -0.96875 -1.953125 -0.96875q-1.21875 0 -1.9375 0.96875q-0.703125 0.96875 -0.703125 2.65625q0 1.671875 0.703125 2.640625q0.71875 0.96875 1.9375 0.96875q1.234375 0 1.953125 -0.96875q0.734375 -0.96875 0.734375 -2.640625zm3.5391083 -4.671875q1.28125 -0.484375 2.40625 -0.484375q0.625 0 1.15625 0.1875q0.546875 0.171875 0.9375 0.5625q0.921875 -0.75 1.96875 -0.75q0.5 0 0.953125 0.203125q0.46875 0.1875 0.8125 0.578125q0.359375 0.375 0.5625 0.953125q0.21875 0.5625 0.21875 1.34375l0 7.03125l-1.59375 0l0 -7.078125q0 -0.765625 -0.34375 -1.171875q-0.34375 -0.40625 -0.84375 -0.40625q-0.265625 0 -0.546875 0.125q-0.265625 0.125 -0.5 0.40625q0.125 0.484375 0.125 1.09375l0 3.21875l-1.609375 0l0 -3.25q0 -0.75 -0.234375 -1.171875q-0.234375 -0.421875 -0.90625 -0.421875q-0.4375 0 -0.96875 0.1875l0 8.46875l-1.59375 0l0 -9.625zm17.789108 4.703125q0 -1.734375 -0.8125 -2.671875q-0.8125 -0.953125 -2.109375 -0.953125q-0.734375 0 -1.15625 0.0625q-0.40625 0.0625 -0.640625 0.140625l0 6.25q0.296875 0.28125 0.875 0.515625q0.578125 0.234375 1.203125 0.234375q0.703125 0 1.203125 -0.265625q0.5 -0.28125 0.8125 -0.765625q0.328125 -0.484375 0.46875 -1.125q0.15625 -0.65625 0.15625 -1.421875zm1.8125 0q0 1.125 -0.296875 2.078125q-0.28125 0.953125 -0.828125 1.640625q-0.546875 0.671875 -1.34375 1.0625q-0.78125 0.375 -1.78125 0.375q-0.78125 0 -1.390625 -0.203125q-0.59375 -0.1875 -0.890625 -0.421875l0 3.90625l-1.765625 0l0 -13.109375q0.578125 -0.171875 1.484375 -0.34375q0.90625 -0.171875 2.078125 -0.171875q1.0625 0 1.9375 0.359375q0.875 0.359375 1.484375 1.03125q0.625 0.671875 0.96875 1.640625q0.34375 0.953125 0.34375 2.15625zm5.3047333 -6.515625q-0.546875 0 -0.953125 -0.375q-0.40625 -0.390625 -0.40625 -1.046875q0 -0.65625 0.40625 -1.046875q0.40625 -0.390625 0.953125 -0.390625q0.578125 0 0.96875 0.390625q0.40625 0.390625 0.40625 1.046875q0 0.65625 -0.40625 1.046875q-0.390625 0.375 -0.96875 0.375zm-0.4375 3.015625l-2.859375 0l0 -1.46875l4.609375 0l0 6.078125q0 1.46875 0.390625 1.96875q0.40625 0.5 1.21875 0.5q0.625 0 1.140625 -0.140625q0.53125 -0.15625 0.828125 -0.328125l0.25 1.5q-0.125 0.0625 -0.359375 0.15625q-0.234375 0.09375 -0.546875 0.171875q-0.3125 0.09375 -0.6875 0.15625q-0.359375 0.0625 -0.765625 0.0625q-0.9375 0 -1.5625 -0.25q-0.609375 -0.265625 -0.984375 -0.765625q-0.375 -0.515625 -0.53125 -1.265625q-0.140625 -0.765625 -0.140625 -1.765625l0 -4.609375zm13.851608 8.65625q-0.9375 0 -1.5625 -0.25q-0.609375 -0.265625 -0.96875 -0.765625q-0.359375 -0.515625 -0.515625 -1.265625q-0.140625 -0.765625 -0.140625 -1.765625l0 -9.375l-2.859375 0l0 -1.484375l4.609375 0l0 10.859375q0 0.734375 0.09375 1.203125q0.09375 0.46875 0.296875 0.765625q0.203125 0.28125 0.5 0.390625q0.296875 0.109375 0.703125 0.109375q0.625 0 1.15625 -0.140625q0.53125 -0.15625 0.828125 -0.328125l0.25 1.5q-0.125 0.0625 -0.359375 0.15625q-0.234375 0.09375 -0.5625 0.171875q-0.3125 0.09375 -0.6875 0.15625q-0.375 0.0625 -0.78125 0.0625zm8.992233 -10.359375q1.9999847 0 3.0781097 1.25q1.09375 1.234375 1.09375 3.78125l0 0.609375l-7.0781097 0q0.109375 1.546875 1.015625 2.34375q0.90625 0.796875 2.5468597 0.796875q0.9375 0 1.59375 -0.140625q0.671875 -0.15625 1.0 -0.328125l0.234375 1.5q-0.3125 0.15625 -1.15625 0.34375q-0.828125 0.203125 -1.859375 0.203125q-1.2812347 0 -2.2656097 -0.390625q-0.96875 -0.390625 -1.609375 -1.078125q-0.625 -0.6875 -0.953125 -1.625q-0.3125 -0.953125 -0.3125 -2.0625q0 -1.328125 0.390625 -2.3125q0.40625 -0.984375 1.0625 -1.609375q0.671875 -0.640625 1.5 -0.953125q0.84375 -0.328125 1.71875 -0.328125zm2.3749847 4.21875q0 -1.265625 -0.65625 -2.0q-0.65625 -0.734375 -1.7499847 -0.734375q-0.609375 0 -1.125 0.234375q-0.5 0.234375 -0.859375 0.625q-0.359375 0.375 -0.578125 0.875q-0.203125 0.484375 -0.265625 1.0l5.2343597 0zm10.132874 -1.90625q-0.296875 -0.265625 -0.875 -0.515625q-0.578125 -0.25 -1.1875 -0.25q-0.703125 0 -1.203125 0.28125q-0.5 0.28125 -0.828125 0.765625q-0.3125 0.46875 -0.46875 1.140625q-0.140625 0.671875 -0.140625 1.4375q0 1.734375 0.796875 2.671875q0.8125 0.9375 2.125 0.9375q0.65625 0 1.109375 -0.0625q0.46875 -0.0625 0.671875 -0.125l0 -6.28125zm0 -6.671875l1.78125 -0.296875l0 14.5q-0.578125 0.171875 -1.484375 0.34375q-0.890625 0.171875 -2.078125 0.171875q-1.078125 0 -1.953125 -0.359375q-0.875 -0.359375 -1.5 -1.03125q-0.609375 -0.671875 -0.953125 -1.625q-0.328125 -0.96875 -0.328125 -2.171875q0 -1.140625 0.28125 -2.09375q0.28125 -0.953125 0.828125 -1.625q0.5625 -0.6875 1.34375 -1.0625q0.78125 -0.390625 1.78125 -0.390625q0.796875 0 1.390625 0.1875q0.59375 0.1875 0.890625 0.40625l0 -4.953125zm23.765717 13.9375q-0.75 0.421875 -1.59375 0.625q-0.84375 0.203125 -1.796875 0.203125q-1.171875 0 -2.171875 -0.40625q-0.984375 -0.421875 -1.71875 -1.265625q-0.71875 -0.84375 -1.140625 -2.140625q-0.40625 -1.3125 -0.40625 -3.078125q0 -1.6875 0.4375 -2.96875q0.4375 -1.28125 1.171875 -2.15625q0.75 -0.875 1.75 -1.3125q1.015625 -0.453125 2.140625 -0.453125q0.78125 0 1.609375 0.21875q0.828125 0.203125 1.609375 0.703125l-0.515625 1.4375q-1.40625 -0.796875 -2.640625 -0.796875q-0.875 0 -1.578125 0.375q-0.6875 0.359375 -1.171875 1.0625q-0.484375 0.703125 -0.765625 1.6875q-0.265625 0.984375 -0.265625 2.203125q0 1.359375 0.28125 2.375q0.296875 1.0 0.8125 1.65625q0.515625 0.65625 1.21875 0.984375q0.71875 0.3125 1.5625 0.3125q0.609375 0 1.28125 -0.15625q0.6875 -0.15625 1.421875 -0.5625l0.46875 1.453125zm10.664093 -4.40625q0 1.171875 -0.328125 2.125q-0.328125 0.953125 -0.9375 1.640625q-0.59375 0.671875 -1.421875 1.046875q-0.828125 0.375 -1.8125 0.375q-0.96875 0 -1.796875 -0.375q-0.8125 -0.375 -1.40625 -1.046875q-0.59375 -0.6875 -0.921875 -1.640625q-0.328125 -0.953125 -0.328125 -2.125q0 -1.171875 0.328125 -2.125q0.328125 -0.96875 0.921875 -1.640625q0.59375 -0.671875 1.40625 -1.03125q0.828125 -0.375 1.796875 -0.375q0.984375 0 1.8125 0.375q0.828125 0.359375 1.421875 1.03125q0.609375 0.671875 0.9375 1.640625q0.328125 0.953125 0.328125 2.125zm-1.8125 0q0 -1.6875 -0.734375 -2.65625q-0.71875 -0.96875 -1.953125 -0.96875q-1.21875 0 -1.9375 0.96875q-0.703125 0.96875 -0.703125 2.65625q0 1.671875 0.703125 2.640625q0.71875 0.96875 1.9375 0.96875q1.234375 0 1.953125 -0.96875q0.734375 -0.96875 0.734375 -2.640625zm10.039124 -2.859375q-0.296875 -0.265625 -0.875 -0.515625q-0.578125 -0.25 -1.1875 -0.25q-0.703125 0 -1.203125 0.28125q-0.5 0.28125 -0.828125 0.765625q-0.3125 0.46875 -0.46875 1.140625q-0.140625 0.671875 -0.140625 1.4375q0 1.734375 0.796875 2.671875q0.8125 0.9375 2.125 0.9375q0.65625 0 1.109375 -0.0625q0.46875 -0.0625 0.671875 -0.125l0 -6.28125zm0 -6.671875l1.78125 -0.296875l0 14.5q-0.578125 0.171875 -1.484375 0.34375q-0.890625 0.171875 -2.078125 0.171875q-1.078125 0 -1.953125 -0.359375q-0.875 -0.359375 -1.5 -1.03125q-0.609375 -0.671875 -0.953125 -1.625q-0.328125 -0.96875 -0.328125 -2.171875q0 -1.140625 0.28125 -2.09375q0.28125 -0.953125 0.828125 -1.625q0.5625 -0.6875 1.34375 -1.0625q0.78125 -0.390625 1.78125 -0.390625q0.796875 0 1.390625 0.1875q0.59375 0.1875 0.890625 0.40625l0 -4.953125zm8.820343 4.359375q2.0 0 3.078125 1.25q1.09375 1.234375 1.09375 3.78125l0 0.609375l-7.078125 0q0.109375 1.546875 1.015625 2.34375q0.90625 0.796875 2.546875 0.796875q0.9375 0 1.59375 -0.140625q0.671875 -0.15625 1.0 -0.328125l0.234375 1.5q-0.3125 0.15625 -1.15625 0.34375q-0.828125 0.203125 -1.859375 0.203125q-1.28125 0 -2.265625 -0.390625q-0.96875 -0.390625 -1.609375 -1.078125q-0.625 -0.6875 -0.953125 -1.625q-0.3125 -0.953125 -0.3125 -2.0625q0 -1.328125 0.390625 -2.3125q0.40625 -0.984375 1.0625 -1.609375q0.671875 -0.640625 1.5 -0.953125q0.84375 -0.328125 1.71875 -0.328125zm2.375 4.21875q0 -1.265625 -0.65625 -2.0q-0.65625 -0.734375 -1.75 -0.734375q-0.609375 0 -1.125 0.234375q-0.5 0.234375 -0.859375 0.625q-0.359375 0.375 -0.578125 0.875q-0.203125 0.484375 -0.265625 1.0l5.234375 0z" fill-rule="nonzero"/><path fill="#e69138" d="m449.51706 162.62204l262.01578 0l0 64.535446l-262.01578 0z" fill-rule="evenodd"/><path stroke="#000000" stroke-width="1.0" stroke-linejoin="round" stroke-linecap="butt" d="m449.51706 162.62204l262.01578 0l0 64.535446l-262.01578 0z" fill-rule="evenodd"/><path fill="#000000" d="m485.41904 190.66664l0 10.203125l2.5625 0l0 1.5l-6.875 0l0 -1.5l2.5625 0l0 -10.203125l-2.5625 0l0 -1.5l6.875 0l0 1.5l-2.5625 0zm5.976593 2.078125q0.953125 -0.234375 1.90625 -0.359375q0.953125 -0.125 1.78125 -0.125q1.984375 0 3.0 1.03125q1.015625 1.015625 1.015625 3.28125l0 5.796875l-1.75 0l0 -5.484375q0 -0.953125 -0.171875 -1.546875q-0.171875 -0.609375 -0.484375 -0.9375q-0.3125 -0.328125 -0.75 -0.453125q-0.4375 -0.125 -0.9375 -0.125q-0.4375 0 -0.921875 0.046875q-0.46875 0.046875 -0.921875 0.140625l0 8.359375l-1.765625 0l0 -9.625zm16.523499 1.8125q-0.296875 -0.265625 -0.875 -0.515625q-0.578125 -0.25 -1.1875 -0.25q-0.703125 0 -1.203125 0.28125q-0.5 0.28125 -0.828125 0.765625q-0.3125 0.46875 -0.46875 1.140625q-0.140625 0.671875 -0.140625 1.4375q0 1.734375 0.796875 2.671875q0.8125 0.9375 2.125 0.9375q0.65625 0 1.109375 -0.0625q0.46875 -0.0625 0.671875 -0.125l0 -6.28125zm0 -6.671875l1.78125 -0.296875l0 14.5q-0.578125 0.171875 -1.484375 0.34375q-0.890625 0.171875 -2.078125 0.171875q-1.078125 0 -1.953125 -0.359375q-0.875 -0.359375 -1.5 -1.03125q-0.609375 -0.671875 -0.953125 -1.625q-0.328125 -0.96875 -0.328125 -2.171875q0 -1.140625 0.28125 -2.09375q0.28125 -0.953125 0.828125 -1.625q0.5625 -0.6875 1.34375 -1.0625q0.78125 -0.390625 1.78125 -0.390625q0.796875 0 1.390625 0.1875q0.59375 0.1875 0.890625 0.40625l0 -4.953125zm7.7422485 3.046875q-0.546875 0 -0.953125 -0.375q-0.40625 -0.390625 -0.40625 -1.046875q0 -0.65625 0.40625 -1.046875q0.40625 -0.390625 0.953125 -0.390625q0.578125 0 0.96875 0.390625q0.40625 0.390625 0.40625 1.046875q0 0.65625 -0.40625 1.046875q-0.390625 0.375 -0.96875 0.375zm-0.4375 3.015625l-2.859375 0l0 -1.46875l4.609375 0l0 6.078125q0 1.46875 0.390625 1.96875q0.40625 0.5 1.21875 0.5q0.625 0 1.140625 -0.140625q0.53125 -0.15625 0.828125 -0.328125l0.25 1.5q-0.125 0.0625 -0.359375 0.15625q-0.234375 0.09375 -0.546875 0.171875q-0.3125 0.09375 -0.6875 0.15625q-0.359375 0.0625 -0.765625 0.0625q-0.9375 0 -1.5625 -0.25q-0.609375 -0.265625 -0.984375 -0.765625q-0.375 -0.515625 -0.53125 -1.265625q-0.140625 -0.765625 -0.140625 -1.765625l0 -4.609375zm8.9296875 8.421875l0 -9.359375q2.171875 -0.75 4.390625 -0.75q0.6875 0 1.296875 0.0625q0.625 0.046875 1.375 0.21875l-0.328125 1.546875q-0.671875 -0.1875 -1.203125 -0.234375q-0.515625 -0.0625 -1.140625 -0.0625q-1.296875 0 -2.640625 0.359375l0 8.21875l-1.75 0zm13.914124 -10.125q2.0 0 3.078125 1.25q1.09375 1.234375 1.09375 3.78125l0 0.609375l-7.078125 0q0.109375 1.546875 1.015625 2.34375q0.90625 0.796875 2.546875 0.796875q0.9375 0 1.59375 -0.140625q0.671875 -0.15625 1.0 -0.328125l0.234375 1.5q-0.3125 0.15625 -1.15625 0.34375q-0.828125 0.203125 -1.859375 0.203125q-1.28125 0 -2.265625 -0.390625q-0.96875 -0.390625 -1.609375 -1.078125q-0.625 -0.6875 -0.953125 -1.625q-0.3125 -0.953125 -0.3125 -2.0625q0 -1.328125 0.390625 -2.3125q0.40625 -0.984375 1.0625 -1.609375q0.671875 -0.640625 1.5 -0.953125q0.84375 -0.328125 1.71875 -0.328125zm2.375 4.21875q0 -1.265625 -0.65625 -2.0q-0.65625 -0.734375 -1.75 -0.734375q-0.609375 0 -1.125 0.234375q-0.5 0.234375 -0.859375 0.625q-0.359375 0.375 -0.578125 0.875q-0.203125 0.484375 -0.265625 1.0l5.234375 0zm3.8047485 0.984375q0 -1.34375 0.421875 -2.328125q0.421875 -0.984375 1.171875 -1.625q0.75 -0.640625 1.734375 -0.9375q1.0 -0.3125 2.125 -0.3125q0.734375 0 1.4375 0.09375q0.71875 0.09375 1.53125 0.34375l-0.40625 1.515625q-0.703125 -0.25 -1.296875 -0.328125q-0.578125 -0.078125 -1.171875 -0.078125q-0.765625 0 -1.453125 0.203125q-0.6875 0.203125 -1.1875 0.640625q-0.5 0.4375 -0.796875 1.140625q-0.296875 0.6875 -0.296875 1.671875q0 0.9375 0.265625 1.609375q0.28125 0.671875 0.78125 1.109375q0.515625 0.4375 1.21875 0.65625q0.703125 0.203125 1.546875 0.203125q0.6875 0 1.3125 -0.078125q0.625 -0.078125 1.375 -0.328125l0.265625 1.46875q-0.75 0.28125 -1.515625 0.390625q-0.765625 0.125 -1.671875 0.125q-1.1875 0 -2.1875 -0.328125q-0.984375 -0.328125 -1.703125 -0.96875q-0.71875 -0.640625 -1.109375 -1.609375q-0.390625 -0.96875 -0.390625 -2.25zm14.804749 -4.96875l4.171875 0l0 1.46875l-4.171875 0l0 4.609375q0 0.734375 0.09375 1.203125q0.109375 0.46875 0.359375 0.765625q0.25 0.28125 0.625 0.390625q0.390625 0.109375 0.9375 0.109375q0.78125 0 1.25 -0.125q0.46875 -0.125 0.890625 -0.34375l0.25 1.5q-0.296875 0.125 -0.953125 0.328125q-0.640625 0.21875 -1.609375 0.21875q-1.109375 0 -1.8125 -0.25q-0.703125 -0.265625 -1.09375 -0.765625q-0.390625 -0.515625 -0.546875 -1.265625q-0.140625 -0.765625 -0.140625 -1.765625l0 -4.609375l-2.09375 0l0 -1.46875l2.09375 0l0 -2.78125l1.75 -0.296875l0 3.078125zm25.953186 9.34375q-0.75 0.421875 -1.59375 0.625q-0.84375 0.203125 -1.796875 0.203125q-1.171875 0 -2.171875 -0.40625q-0.984375 -0.421875 -1.71875 -1.265625q-0.71875 -0.84375 -1.140625 -2.140625q-0.40625 -1.3125 -0.40625 -3.078125q0 -1.6875 0.4375 -2.96875q0.4375 -1.28125 1.171875 -2.15625q0.75 -0.875 1.75 -1.3125q1.015625 -0.453125 2.140625 -0.453125q0.78125 0 1.609375 0.21875q0.828125 0.203125 1.609375 0.703125l-0.515625 1.4375q-1.40625 -0.796875 -2.640625 -0.796875q-0.875 0 -1.578125 0.375q-0.6875 0.359375 -1.171875 1.0625q-0.484375 0.703125 -0.765625 1.6875q-0.265625 0.984375 -0.265625 2.203125q0 1.359375 0.28125 2.375q0.296875 1.0 0.8125 1.65625q0.515625 0.65625 1.21875 0.984375q0.71875 0.3125 1.5625 0.3125q0.609375 0 1.28125 -0.15625q0.6875 -0.15625 1.421875 -0.5625l0.46875 1.453125zm6.2891235 -0.71875q0.65625 0 1.171875 -0.03125q0.53125 -0.046875 0.875 -0.109375l0 -2.9375q-0.34375 -0.109375 -0.828125 -0.171875q-0.46875 -0.0625 -1.0 -0.0625q-0.5 0 -0.96875 0.078125q-0.46875 0.0625 -0.828125 0.265625q-0.359375 0.1875 -0.59375 0.5q-0.234375 0.296875 -0.234375 0.765625q0 0.96875 0.640625 1.34375q0.65625 0.359375 1.765625 0.359375zm-0.171875 -8.859375q1.109375 0 1.859375 0.28125q0.765625 0.265625 1.234375 0.765625q0.46875 0.484375 0.65625 1.1875q0.203125 0.703125 0.203125 1.53125l0 6.1875q-0.625 0.109375 -1.640625 0.25q-1.015625 0.15625 -2.078125 0.15625q-0.8125 0 -1.578125 -0.140625q-0.765625 -0.140625 -1.359375 -0.484375q-0.59375 -0.359375 -0.96875 -0.96875q-0.359375 -0.625 -0.359375 -1.578125q0 -0.859375 0.375 -1.4375q0.375 -0.59375 0.953125 -0.953125q0.59375 -0.359375 1.34375 -0.515625q0.765625 -0.171875 1.53125 -0.171875q1.046875 0 2.046875 0.234375l0 -0.484375q0 -0.453125 -0.09375 -0.859375q-0.09375 -0.421875 -0.359375 -0.765625q-0.265625 -0.34375 -0.734375 -0.546875q-0.453125 -0.203125 -1.171875 -0.203125q-0.921875 0 -1.609375 0.140625q-0.671875 0.125 -1.046875 0.25l-0.203125 -1.453125q0.359375 -0.171875 1.203125 -0.296875q0.84375 -0.125 1.796875 -0.125zm12.601624 10.359375q-0.9375 0 -1.5625 -0.25q-0.609375 -0.265625 -0.96875 -0.765625q-0.359375 -0.515625 -0.515625 -1.265625q-0.140625 -0.765625 -0.140625 -1.765625l0 -9.375l-2.859375 0l0 -1.484375l4.609375 0l0 10.859375q0 0.734375 0.09375 1.203125q0.09375 0.46875 0.296875 0.765625q0.203125 0.28125 0.5 0.390625q0.296875 0.109375 0.703125 0.109375q0.625 0 1.15625 -0.140625q0.53125 -0.15625 0.828125 -0.328125l0.25 1.5q-0.125 0.0625 -0.359375 0.15625q-0.234375 0.09375 -0.5625 0.171875q-0.3125 0.09375 -0.6875 0.15625q-0.375 0.0625 -0.78125 0.0625zm10.664124 0q-0.9375 0 -1.5625 -0.25q-0.609375 -0.265625 -0.96875 -0.765625q-0.359375 -0.515625 -0.515625 -1.265625q-0.140625 -0.765625 -0.140625 -1.765625l0 -9.375l-2.859375 0l0 -1.484375l4.609375 0l0 10.859375q0 0.734375 0.09375 1.203125q0.09375 0.46875 0.296875 0.765625q0.203125 0.28125 0.5 0.390625q0.296875 0.109375 0.703125 0.109375q0.625 0 1.15625 -0.140625q0.53125 -0.15625 0.828125 -0.328125l0.25 1.5q-0.125 0.0625 -0.359375 0.15625q-0.234375 0.09375 -0.5625 0.171875q-0.3125 0.09375 -0.6875 0.15625q-0.375 0.0625 -0.78125 0.0625zm23.953186 -13.4375l0 1.5l-3.625 0l0 11.703125l-1.75 0l0 -11.703125l-3.625 0l0 -1.5l9.0 0zm6.2734985 11.9375q0.65625 0 1.171875 -0.03125q0.53125 -0.046875 0.875 -0.109375l0 -2.9375q-0.34375 -0.109375 -0.828125 -0.171875q-0.46875 -0.0625 -1.0 -0.0625q-0.5 0 -0.96875 0.078125q-0.46875 0.0625 -0.828125 0.265625q-0.359375 0.1875 -0.59375 0.5q-0.234375 0.296875 -0.234375 0.765625q0 0.96875 0.640625 1.34375q0.65625 0.359375 1.765625 0.359375zm-0.171875 -8.859375q1.109375 0 1.859375 0.28125q0.765625 0.265625 1.234375 0.765625q0.46875 0.484375 0.65625 1.1875q0.203125 0.703125 0.203125 1.53125l0 6.1875q-0.625 0.109375 -1.640625 0.25q-1.015625 0.15625 -2.078125 0.15625q-0.8125 0 -1.578125 -0.140625q-0.765625 -0.140625 -1.359375 -0.484375q-0.59375 -0.359375 -0.96875 -0.96875q-0.359375 -0.625 -0.359375 -1.578125q0 -0.859375 0.375 -1.4375q0.375 -0.59375 0.953125 -0.953125q0.59375 -0.359375 1.34375 -0.515625q0.765625 -0.171875 1.53125 -0.171875q1.046875 0 2.046875 0.234375l0 -0.484375q0 -0.453125 -0.09375 -0.859375q-0.09375 -0.421875 -0.359375 -0.765625q-0.265625 -0.34375 -0.734375 -0.546875q-0.453125 -0.203125 -1.171875 -0.203125q-0.921875 0 -1.609375 0.140625q-0.671875 0.125 -1.046875 0.25l-0.203125 -1.453125q0.359375 -0.171875 1.203125 -0.296875q0.84375 -0.125 1.796875 -0.125zm8.679749 0.59375q0.328125 -0.1875 0.921875 -0.390625q0.609375 -0.203125 1.359375 -0.203125q1.0 0 1.78125 0.390625q0.796875 0.375 1.34375 1.0625q0.546875 0.671875 0.828125 1.625q0.296875 0.953125 0.296875 2.09375q0 1.203125 -0.34375 2.171875q-0.34375 0.953125 -0.96875 1.625q-0.609375 0.671875 -1.484375 1.03125q-0.875 0.359375 -1.9375 0.359375q-1.171875 0 -2.09375 -0.171875q-0.921875 -0.171875 -1.46875 -0.34375l0 -14.203125l1.765625 -0.296875l0 5.25zm0 8.0q0.40625 0.109375 0.8125 0.15625q0.40625 0.046875 0.765625 0.046875q1.46875 0 2.296875 -0.90625q0.84375 -0.90625 0.84375 -2.71875q0 -0.765625 -0.15625 -1.4375q-0.140625 -0.671875 -0.46875 -1.140625q-0.3125 -0.484375 -0.8125 -0.765625q-0.5 -0.28125 -1.203125 -0.28125q-0.625 0 -1.203125 0.25q-0.578125 0.25 -0.875 0.515625l0 6.28125zm14.5859375 1.765625q-0.9375 0 -1.5625 -0.25q-0.609375 -0.265625 -0.96875 -0.765625q-0.359375 -0.515625 -0.515625 -1.265625q-0.140625 -0.765625 -0.140625 -1.765625l0 -9.375l-2.859375 0l0 -1.484375l4.609375 0l0 10.859375q0 0.734375 0.09375 1.203125q0.09375 0.46875 0.296875 0.765625q0.203125 0.28125 0.5 0.390625q0.296875 0.109375 0.703125 0.109375q0.625 0 1.15625 -0.140625q0.53125 -0.15625 0.828125 -0.328125l0.25 1.5q-0.125 0.0625 -0.359375 0.15625q-0.234375 0.09375 -0.5625 0.171875q-0.3125 0.09375 -0.6875 0.15625q-0.375 0.0625 -0.78125 0.0625zm8.992249 -10.359375q2.0 0 3.078125 1.25q1.09375 1.234375 1.09375 3.78125l0 0.609375l-7.078125 0q0.109375 1.546875 1.015625 2.34375q0.90625 0.796875 2.546875 0.796875q0.9375 0 1.59375 -0.140625q0.671875 -0.15625 1.0 -0.328125l0.234375 1.5q-0.3125 0.15625 -1.15625 0.34375q-0.828125 0.203125 -1.859375 0.203125q-1.28125 0 -2.265625 -0.390625q-0.96875 -0.390625 -1.609375 -1.078125q-0.625 -0.6875 -0.953125 -1.625q-0.3125 -0.953125 -0.3125 -2.0625q0 -1.328125 0.390625 -2.3125q0.40625 -0.984375 1.0625 -1.609375q0.671875 -0.640625 1.5 -0.953125q0.84375 -0.328125 1.71875 -0.328125zm2.375 4.21875q0 -1.265625 -0.65625 -2.0q-0.65625 -0.734375 -1.75 -0.734375q-0.609375 0 -1.125 0.234375q-0.5 0.234375 -0.859375 0.625q-0.359375 0.375 -0.578125 0.875q-0.203125 0.484375 -0.265625 1.0l5.234375 0z" fill-rule="nonzero"/><path fill="#ea9999" d="m164.06561 40.783245l127.055115 0l0 54.236225l-127.055115 0z" fill-rule="evenodd"/><path stroke="#000000" stroke-width="1.0" stroke-linejoin="round" stroke-linecap="butt" d="m164.06561 40.783245l127.055115 0l0 54.236225l-127.055115 0z" fill-rule="evenodd"/><path fill="#000000" d="m198.8588 63.33698q-0.65625 0.375 -1.390625 0.546875q-0.734375 0.18750381 -1.578125 0.18750381q-1.015625 0 -1.890625 -0.3593788q-0.859375 -0.375 -1.5 -1.109375q-0.640625 -0.734375 -1.0 -1.875q-0.359375 -1.140625 -0.359375 -2.6875q0 -1.46875 0.375 -2.59375q0.390625 -1.125 1.03125 -1.890625q0.65625 -0.765625 1.53125 -1.15625q0.890625 -0.390625 1.875 -0.390625q0.6875 0 1.40625 0.1875q0.71875 0.1875 1.40625 0.625l-0.4375 1.265625q-1.234375 -0.71875 -2.3125 -0.71875q-0.765625 0 -1.375 0.328125q-0.609375 0.328125 -1.046875 0.953125q-0.421875 0.609375 -0.65625 1.46875q-0.234375 0.859375 -0.234375 1.921875q0 1.1875 0.25 2.078125q0.25 0.875 0.703125 1.453125q0.453125 0.578125 1.078125 0.859375q0.625 0.265625 1.34375 0.265625q0.546875 0 1.140625 -0.140625q0.59375 -0.140625 1.234375 -0.484375l0.40625 1.265625zm9.328125 -3.84375q0 1.03125 -0.296875 1.859375q-0.28125 0.828125 -0.8125 1.421875q-0.515625 0.59375 -1.25 0.921875q-0.71875 0.3281288 -1.578125 0.3281288q-0.828125 0 -1.546875 -0.3281288q-0.71875 -0.328125 -1.25 -0.921875q-0.515625 -0.59375 -0.8125 -1.421875q-0.28125 -0.828125 -0.28125 -1.859375q0 -1.03125 0.28125 -1.859375q0.296875 -0.84375 0.8125 -1.421875q0.53125 -0.59375 1.25 -0.921875q0.71875 -0.328125 1.546875 -0.328125q0.859375 0 1.578125 0.328125q0.734375 0.328125 1.25 0.921875q0.53125 0.578125 0.8125 1.421875q0.296875 0.828125 0.296875 1.859375zm-1.578125 0q0 -1.46875 -0.640625 -2.3125q-0.625 -0.859375 -1.71875 -0.859375q-1.0625 0 -1.6875 0.859375q-0.625 0.84375 -0.625 2.3125q0 1.453125 0.625 2.3125q0.625 0.84375 1.6875 0.84375q1.09375 0 1.71875 -0.84375q0.640625 -0.859375 0.640625 -2.3125zm3.65625 -4.078125q0.84375 -0.21875 1.671875 -0.328125q0.828125 -0.109375 1.546875 -0.109375q1.734375 0 2.625 0.90625q0.890625 0.890625 0.890625 2.859375l0 5.078125l-1.53125 0l0 -4.796875q0 -0.84375 -0.15625 -1.359375q-0.140625 -0.515625 -0.421875 -0.796875q-0.265625 -0.296875 -0.65625 -0.40625q-0.375 -0.125 -0.8125 -0.125q-0.375 0 -0.796875 0.046875q-0.421875 0.046875 -0.8125 0.125l0 7.3125l-1.546875 0l0 -8.40625zm14.546875 6.234375q0 -0.453125 -0.390625 -0.75q-0.375 -0.3125 -0.953125 -0.53125q-0.5625 -0.21875 -1.234375 -0.4375q-0.671875 -0.21875 -1.234375 -0.53125q-0.5625 -0.3125 -0.953125 -0.78125q-0.375 -0.46875 -0.375 -1.21875q0 -1.046875 0.84375 -1.734375q0.84375 -0.703125 2.65625 -0.703125q0.703125 0 1.453125 0.109375q0.765625 0.09375 1.3125 0.265625l-0.28125 1.375q-0.15625 -0.078125 -0.421875 -0.15625q-0.25 -0.078125 -0.59375 -0.140625q-0.328125 -0.078125 -0.71875 -0.109375q-0.375 -0.046875 -0.734375 -0.046875q-2.015625 0 -2.015625 1.109375q0 0.390625 0.375 0.671875q0.390625 0.265625 0.96875 0.484375q0.578125 0.21875 1.25 0.453125q0.671875 0.234375 1.25 0.578125q0.578125 0.328125 0.953125 0.8125q0.390625 0.46875 0.390625 1.203125q0 1.171875 -0.921875 1.8125q-0.90625 0.6406288 -2.875 0.6406288q-0.90625 0 -1.65625 -0.15625381q-0.734375 -0.140625 -1.40625 -0.4375l0.296875 -1.40625q0.65625 0.296875 1.375 0.5q0.71875 0.203125 1.53125 0.203125q2.109375 0 2.109375 -1.078125zm7.3125 -6.484375l3.65625 0l0 1.28125l-3.65625 0l0 4.03125q0 0.65625 0.09375 1.078125q0.09375 0.40625 0.3125 0.65625q0.21875 0.25 0.546875 0.34375q0.34375 0.09375 0.828125 0.09375q0.671875 0 1.078125 -0.109375q0.40625 -0.125 0.78125 -0.296875l0.21875 1.296875q-0.25 0.109375 -0.828125 0.296875q-0.5625 0.18750381 -1.40625 0.18750381q-0.96875 0 -1.59375 -0.21875381q-0.609375 -0.234375 -0.953125 -0.671875q-0.34375 -0.453125 -0.484375 -1.109375q-0.125 -0.671875 -0.125 -1.546875l0 -4.03125l-1.828125 0l0 -1.28125l1.828125 0l0 -2.421875l1.53125 -0.265625l0 2.6875zm9.546875 7.5625q0.578125 0 1.03125 -0.03125q0.46875 -0.046875 0.765625 -0.109375l0 -2.578125q-0.296875 -0.09375 -0.71875 -0.140625q-0.421875 -0.0625 -0.890625 -0.0625q-0.421875 0 -0.84375 0.078125q-0.40625 0.0625 -0.71875 0.234375q-0.3125 0.15625 -0.515625 0.4375q-0.203125 0.265625 -0.203125 0.671875q0 0.84375 0.5625 1.171875q0.5625 0.328125 1.53125 0.328125zm-0.140625 -7.765625q0.96875 0 1.625 0.25q0.671875 0.234375 1.078125 0.671875q0.40625 0.421875 0.578125 1.046875q0.171875 0.609375 0.171875 1.328125l0 5.40625q-0.546875 0.09375 -1.4375 0.21875q-0.875 0.14062881 -1.8125 0.14062881q-0.703125 0 -1.375 -0.12500381q-0.671875 -0.109375 -1.203125 -0.421875q-0.515625 -0.3125 -0.84375 -0.84375q-0.3125 -0.546875 -0.3125 -1.390625q0 -0.75 0.328125 -1.25q0.328125 -0.515625 0.84375 -0.828125q0.515625 -0.328125 1.171875 -0.46875q0.65625 -0.140625 1.328125 -0.140625q0.921875 0 1.796875 0.203125l0 -0.421875q0 -0.390625 -0.09375 -0.75q-0.078125 -0.375 -0.3125 -0.671875q-0.234375 -0.296875 -0.640625 -0.46875q-0.390625 -0.1875 -1.015625 -0.1875q-0.8125 0 -1.40625 0.125q-0.59375 0.109375 -0.90625 0.21875l-0.1875 -1.265625q0.3125 -0.15625 1.046875 -0.265625q0.734375 -0.109375 1.578125 -0.109375zm6.046875 0.453125q0.84375 -0.21875 1.671875 -0.328125q0.828125 -0.109375 1.546875 -0.109375q1.734375 0 2.625 0.90625q0.890625 0.890625 0.890625 2.859375l0 5.078125l-1.53125 0l0 -4.796875q0 -0.84375 -0.15625 -1.359375q-0.140625 -0.515625 -0.421875 -0.796875q-0.265625 -0.296875 -0.65625 -0.40625q-0.375 -0.125 -0.8125 -0.125q-0.375 0 -0.796875 0.046875q-0.421875 0.046875 -0.8125 0.125l0 7.3125l-1.546875 0l0 -8.40625zm12.53125 -0.25l3.65625 0l0 1.28125l-3.65625 0l0 4.03125q0 0.65625 0.09375 1.078125q0.09375 0.40625 0.3125 0.65625q0.21875 0.25 0.546875 0.34375q0.34375 0.09375 0.828125 0.09375q0.671875 0 1.078125 -0.109375q0.40625 -0.125 0.78125 -0.296875l0.21875 1.296875q-0.25 0.109375 -0.828125 0.296875q-0.5625 0.18750381 -1.40625 0.18750381q-0.96875 0 -1.59375 -0.21875381q-0.609375 -0.234375 -0.953125 -0.671875q-0.34375 -0.453125 -0.484375 -1.109375q-0.125 -0.671875 -0.125 -1.546875l0 -4.03125l-1.828125 0l0 -1.28125l1.828125 0l0 -2.421875l1.53125 -0.265625l0 2.6875z" fill-rule="nonzero"/><path fill="#000000" d="m183.24161 80.13386l1.53125 0l0 5.40625q-0.34375 0.125 -1.140625 0.328125q-0.78125 0.203125 -1.84375 0.203125q-1.046875 0 -1.90625 -0.40625q-0.84375 -0.40625 -1.453125 -1.171875q-0.609375 -0.765625 -0.953125 -1.890625q-0.328125 -1.125 -0.328125 -2.5625q0 -1.453125 0.375 -2.578125q0.375 -1.125 1.015625 -1.875q0.640625 -0.765625 1.5 -1.171875q0.859375 -0.40625 1.84375 -0.40625q0.640625 0 1.125 0.09375q0.484375 0.09375 0.828125 0.234375q0.34375 0.125 0.5625 0.265625q0.234375 0.140625 0.34375 0.21875l-0.5 1.28125q-0.4375 -0.34375 -1.03125 -0.546875q-0.578125 -0.21875 -1.234375 -0.21875q-0.703125 0 -1.3125 0.34375q-0.609375 0.328125 -1.046875 0.953125q-0.421875 0.609375 -0.671875 1.484375q-0.234375 0.859375 -0.234375 1.921875q0 1.046875 0.21875 1.90625q0.21875 0.859375 0.625 1.46875q0.40625 0.609375 1.015625 0.96875q0.609375 0.34375 1.390625 0.34375q0.546875 0 0.84375 -0.078125q0.296875 -0.078125 0.4375 -0.15625l0 -4.359375zm8.6875 5.890625q-0.828125 0 -1.375 -0.21875q-0.53125 -0.234375 -0.859375 -0.671875q-0.3125 -0.453125 -0.453125 -1.109375q-0.125 -0.671875 -0.125 -1.546875l0 -8.1875l-2.5 0l0 -1.296875l4.03125 0l0 9.484375q0 0.65625 0.078125 1.078125q0.09375 0.40625 0.265625 0.65625q0.1875 0.25 0.4375 0.34375q0.265625 0.09375 0.625 0.09375q0.546875 0 1.0 -0.125q0.46875 -0.140625 0.734375 -0.28125l0.21875 1.296875q-0.109375 0.0625 -0.3125 0.140625q-0.203125 0.078125 -0.484375 0.15625q-0.28125 0.078125 -0.609375 0.125q-0.328125 0.0625 -0.671875 0.0625zm11.59375 -4.53125q0 1.03125 -0.296875 1.859375q-0.28125 0.828125 -0.8125 1.421875q-0.515625 0.59375 -1.25 0.921875q-0.71875 0.328125 -1.578125 0.328125q-0.828125 0 -1.546875 -0.328125q-0.71875 -0.328125 -1.25 -0.921875q-0.515625 -0.59375 -0.8125 -1.421875q-0.28125 -0.828125 -0.28125 -1.859375q0 -1.03125 0.28125 -1.859375q0.296875 -0.84375 0.8125 -1.421875q0.53125 -0.59375 1.25 -0.921875q0.71875 -0.328125 1.546875 -0.328125q0.859375 0 1.578125 0.328125q0.734375 0.328125 1.25 0.921875q0.53125 0.578125 0.8125 1.421875q0.296875 0.828125 0.296875 1.859375zm-1.578125 0q0 -1.46875 -0.640625 -2.3125q-0.625 -0.859375 -1.71875 -0.859375q-1.0625 0 -1.6875 0.859375q-0.625 0.84375 -0.625 2.3125q0 1.453125 0.625 2.3125q0.625 0.84375 1.6875 0.84375q1.09375 0 1.71875 -0.84375q0.640625 -0.859375 0.640625 -2.3125zm5.203125 -4.015625q0.28125 -0.15625 0.8125 -0.328125q0.53125 -0.1875 1.1875 -0.1875q0.875 0 1.5625 0.34375q0.6875 0.328125 1.15625 0.921875q0.484375 0.59375 0.734375 1.4375q0.25 0.828125 0.25 1.828125q0 1.046875 -0.296875 1.890625q-0.296875 0.828125 -0.84375 1.421875q-0.53125 0.59375 -1.296875 0.90625q-0.765625 0.3125 -1.703125 0.3125q-1.015625 0 -1.828125 -0.15625q-0.796875 -0.140625 -1.28125 -0.296875l0 -12.421875l1.546875 -0.25l0 4.578125zm0 7.0q0.359375 0.09375 0.703125 0.140625q0.359375 0.046875 0.671875 0.046875q1.296875 0 2.015625 -0.796875q0.734375 -0.796875 0.734375 -2.375q0 -0.671875 -0.140625 -1.25q-0.125 -0.59375 -0.40625 -1.015625q-0.28125 -0.421875 -0.71875 -0.65625q-0.4375 -0.25 -1.046875 -0.25q-0.546875 0 -1.046875 0.21875q-0.5 0.203125 -0.765625 0.453125l0 5.484375zm11.203125 0.25q0.578125 0 1.03125 -0.03125q0.46875 -0.046875 0.765625 -0.109375l0 -2.578125q-0.296875 -0.09375 -0.71875 -0.140625q-0.421875 -0.0625 -0.890625 -0.0625q-0.421875 0 -0.84375 0.078125q-0.40625 0.0625 -0.71875 0.234375q-0.3125 0.15625 -0.515625 0.4375q-0.203125 0.265625 -0.203125 0.671875q0 0.84375 0.5625 1.171875q0.5625 0.328125 1.53125 0.328125zm-0.140625 -7.765625q0.96875 0 1.625 0.25q0.671875 0.234375 1.078125 0.671875q0.40625 0.421875 0.578125 1.046875q0.171875 0.609375 0.171875 1.328125l0 5.40625q-0.546875 0.09375 -1.4375 0.21875q-0.875 0.140625 -1.8125 0.140625q-0.703125 0 -1.375 -0.125q-0.671875 -0.109375 -1.203125 -0.421875q-0.515625 -0.3125 -0.84375 -0.84375q-0.3125 -0.546875 -0.3125 -1.390625q0 -0.75 0.328125 -1.25q0.328125 -0.515625 0.84375 -0.828125q0.515625 -0.328125 1.171875 -0.46875q0.65625 -0.140625 1.328125 -0.140625q0.921875 0 1.796875 0.203125l0 -0.421875q0 -0.390625 -0.09375 -0.75q-0.078125 -0.375 -0.3125 -0.671875q-0.234375 -0.296875 -0.640625 -0.46875q-0.390625 -0.1875 -1.015625 -0.1875q-0.8125 0 -1.40625 0.125q-0.59375 0.109375 -0.90625 0.21875l-0.1875 -1.265625q0.3125 -0.15625 1.046875 -0.265625q0.734375 -0.109375 1.578125 -0.109375zm11.03125 9.0625q-0.828125 0 -1.375 -0.21875q-0.53125 -0.234375 -0.859375 -0.671875q-0.3125 -0.453125 -0.453125 -1.109375q-0.125 -0.671875 -0.125 -1.546875l0 -8.1875l-2.5 0l0 -1.296875l4.03125 0l0 9.484375q0 0.65625 0.078125 1.078125q0.09375 0.40625 0.265625 0.65625q0.1875 0.25 0.4375 0.34375q0.265625 0.09375 0.625 0.09375q0.546875 0 1.0 -0.125q0.46875 -0.140625 0.734375 -0.28125l0.21875 1.296875q-0.109375 0.0625 -0.3125 0.140625q-0.203125 0.078125 -0.484375 0.15625q-0.28125 0.078125 -0.609375 0.125q-0.328125 0.0625 -0.671875 0.0625zm20.921875 -5.984375q0 1.609375 -0.40625 2.734375q-0.390625 1.109375 -1.09375 1.8125q-0.703125 0.6875 -1.671875 1.015625q-0.953125 0.3125 -2.0625 0.3125q-1.15625 0 -2.34375 -0.28125l0 -11.1875q1.1875 -0.28125 2.34375 -0.28125q1.109375 0 2.0625 0.3125q0.96875 0.3125 1.671875 1.03125q0.703125 0.703125 1.09375 1.828125q0.40625 1.109375 0.40625 2.703125zm-6.046875 4.5q0.46875 0.046875 0.953125 0.046875q0.84375 0 1.5 -0.25q0.65625 -0.25 1.09375 -0.796875q0.453125 -0.546875 0.6875 -1.421875q0.25 -0.875 0.25 -2.078125q0 -2.359375 -0.90625 -3.453125q-0.90625 -1.09375 -2.671875 -1.09375q-0.25 0 -0.484375 0.015625q-0.234375 0 -0.421875 0.03125l0 9.0zm11.546875 0.1875q0.578125 0 1.03125 -0.03125q0.46875 -0.046875 0.765625 -0.109375l0 -2.578125q-0.296875 -0.09375 -0.71875 -0.140625q-0.421875 -0.0625 -0.890625 -0.0625q-0.421875 0 -0.84375 0.078125q-0.40625 0.0625 -0.71875 0.234375q-0.3125 0.15625 -0.515625 0.4375q-0.203125 0.265625 -0.203125 0.671875q0 0.84375 0.5625 1.171875q0.5625 0.328125 1.53125 0.328125zm-0.140625 -7.765625q0.96875 0 1.625 0.25q0.671875 0.234375 1.078125 0.671875q0.40625 0.421875 0.578125 1.046875q0.171875 0.609375 0.171875 1.328125l0 5.40625q-0.546875 0.09375 -1.4375 0.21875q-0.875 0.140625 -1.8125 0.140625q-0.703125 0 -1.375 -0.125q-0.671875 -0.109375 -1.203125 -0.421875q-0.515625 -0.3125 -0.84375 -0.84375q-0.3125 -0.546875 -0.3125 -1.390625q0 -0.75 0.328125 -1.25q0.328125 -0.515625 0.84375 -0.828125q0.515625 -0.328125 1.171875 -0.46875q0.65625 -0.140625 1.328125 -0.140625q0.921875 0 1.796875 0.203125l0 -0.421875q0 -0.390625 -0.09375 -0.75q-0.078125 -0.375 -0.3125 -0.671875q-0.234375 -0.296875 -0.640625 -0.46875q-0.390625 -0.1875 -1.015625 -0.1875q-0.8125 0 -1.40625 0.125q-0.59375 0.109375 -0.90625 0.21875l-0.1875 -1.265625q0.3125 -0.15625 1.046875 -0.265625q0.734375 -0.109375 1.578125 -0.109375zm9.25 0.203125l3.65625 0l0 1.28125l-3.65625 0l0 4.03125q0 0.65625 0.09375 1.078125q0.09375 0.40625 0.3125 0.65625q0.21875 0.25 0.546875 0.34375q0.34375 0.09375 0.828125 0.09375q0.671875 0 1.078125 -0.109375q0.40625 -0.125 0.78125 -0.296875l0.21875 1.296875q-0.25 0.109375 -0.828125 0.296875q-0.5625 0.1875 -1.40625 0.1875q-0.96875 0 -1.59375 -0.21875q-0.609375 -0.234375 -0.953125 -0.671875q-0.34375 -0.453125 -0.484375 -1.109375q-0.125 -0.671875 -0.125 -1.546875l0 -4.03125l-1.828125 0l0 -1.28125l1.828125 0l0 -2.421875l1.53125 -0.265625l0 2.6875zm9.546875 7.5625q0.578125 0 1.03125 -0.03125q0.46875 -0.046875 0.765625 -0.109375l0 -2.578125q-0.296875 -0.09375 -0.71875 -0.140625q-0.421875 -0.0625 -0.890625 -0.0625q-0.421875 0 -0.84375 0.078125q-0.40625 0.0625 -0.71875 0.234375q-0.3125 0.15625 -0.515625 0.4375q-0.203125 0.265625 -0.203125 0.671875q0 0.84375 0.5625 1.171875q0.5625 0.328125 1.53125 0.328125zm-0.140625 -7.765625q0.96875 0 1.625 0.25q0.671875 0.234375 1.078125 0.671875q0.40625 0.421875 0.578125 1.046875q0.171875 0.609375 0.171875 1.328125l0 5.40625q-0.546875 0.09375 -1.4375 0.21875q-0.875 0.140625 -1.8125 0.140625q-0.703125 0 -1.375 -0.125q-0.671875 -0.109375 -1.203125 -0.421875q-0.515625 -0.3125 -0.84375 -0.84375q-0.3125 -0.546875 -0.3125 -1.390625q0 -0.75 0.328125 -1.25q0.328125 -0.515625 0.84375 -0.828125q0.515625 -0.328125 1.171875 -0.46875q0.65625 -0.140625 1.328125 -0.140625q0.921875 0 1.796875 0.203125l0 -0.421875q0 -0.390625 -0.09375 -0.75q-0.078125 -0.375 -0.3125 -0.671875q-0.234375 -0.296875 -0.640625 -0.46875q-0.390625 -0.1875 -1.015625 -0.1875q-0.8125 0 -1.40625 0.125q-0.59375 0.109375 -0.90625 0.21875l-0.1875 -1.265625q0.3125 -0.15625 1.046875 -0.265625q0.734375 -0.109375 1.578125 -0.109375z" fill-rule="nonzero"/><path fill="#000000" fill-opacity="0.0" d="m279.42783 194.61548l170.07874 0.28347778" fill-rule="evenodd"/><path stroke="#000000" stroke-width="1.0" stroke-linejoin="round" stroke-linecap="butt" d="m279.42783 194.61548l164.07874 0.27346802" fill-rule="evenodd"/><path fill="#000000" stroke="#000000" stroke-width="1.0" stroke-linecap="butt" d="m443.5038 196.54068l4.5408325 -1.644165l-4.535309 -1.6593018z" fill-rule="evenodd"/><path fill="#000000" fill-opacity="0.0" d="m279.42783 194.61548c45.826782 0 91.653534 -43.96849 91.653534 -87.937004" fill-rule="evenodd"/><path stroke="#000000" stroke-width="1.0" stroke-linejoin="round" stroke-linecap="butt" d="m279.42783 194.61548c22.913391 0 45.826782 -10.992126 63.01181 -27.4803c8.592529 -8.244095 15.75296 -17.862213 20.765259 -28.167328c2.506134 -5.1525574 4.4752502 -10.476868 5.81781 -15.887062c0.6713257 -2.7050934 1.1860046 -5.431656 1.5328369 -8.168953c0.08666992 -0.68431854 0.16293335 -1.3693161 0.22845459 -2.0548172l0.016967773 -0.18508911" fill-rule="evenodd"/><path fill="#000000" stroke="#000000" stroke-width="1.0" stroke-linecap="butt" d="m372.4509 112.74911l-1.4378357 -4.610321l-1.8619995 4.455948z" fill-rule="evenodd"/><path fill="#b4a7d6" d="m334.88452 274.67453l392.40942 0l0 43.3071l-392.40942 0z" fill-rule="evenodd"/><path stroke="#000000" stroke-width="1.0" stroke-linejoin="round" stroke-linecap="butt" d="m334.88452 274.67453l392.40942 0l0 43.3071l-392.40942 0z" fill-rule="evenodd"/><path fill="#000000" d="m453.04593 303.80807l0 -13.203125l7.40625 0l0 1.5l-5.65625 0l0 4.046875l4.953125 0l0 1.5l-4.953125 0l0 4.65625l6.125 0l0 1.5l-7.875 0zm16.835999 0q-0.21875 -0.421875 -0.53125 -0.9375q-0.3125 -0.515625 -0.671875 -1.046875q-0.359375 -0.546875 -0.75 -1.078125q-0.390625 -0.546875 -0.78125 -1.015625q-0.390625 0.5 -0.8125 1.03125q-0.421875 0.53125 -0.828125 1.078125q-0.390625 0.546875 -0.734375 1.0625q-0.328125 0.5 -0.5625 0.90625l-1.8125 0q0.703125 -1.28125 1.703125 -2.625q1.015625 -1.359375 2.0 -2.578125l-3.5625 -4.6875l1.984375 0l2.671875 3.453125l2.453125 -3.453125l1.875 0l-3.265625 4.578125q0.953125 1.265625 1.921875 2.625q0.984375 1.359375 1.65625 2.6875l-1.953125 0zm8.085968 -10.125q2.0 0 3.078125 1.25q1.09375 1.234375 1.09375 3.78125l0 0.609375l-7.078125 0q0.109375 1.546875 1.015625 2.34375q0.90625 0.796875 2.546875 0.796875q0.9375 0 1.59375 -0.140625q0.671875 -0.15625 1.0 -0.328125l0.234375 1.5q-0.3125 0.15625 -1.15625 0.34375q-0.828125 0.203125 -1.859375 0.203125q-1.28125 0 -2.265625 -0.390625q-0.96875 -0.390625 -1.609375 -1.078125q-0.625 -0.6875 -0.953125 -1.625q-0.3125 -0.953125 -0.3125 -2.0625q0 -1.328125 0.390625 -2.3125q0.40625 -0.984375 1.0625 -1.609375q0.671875 -0.640625 1.5 -0.953125q0.84375 -0.328125 1.71875 -0.328125zm2.375 4.21875q0 -1.265625 -0.65625 -2.0q-0.65625 -0.734375 -1.75 -0.734375q-0.609375 0 -1.125 0.234375q-0.5 0.234375 -0.859375 0.625q-0.359375 0.375 -0.578125 0.875q-0.203125 0.484375 -0.265625 1.0l5.234375 0zm3.8047485 0.984375q0 -1.34375 0.421875 -2.328125q0.421875 -0.984375 1.171875 -1.625q0.75 -0.640625 1.734375 -0.9375q1.0 -0.3125 2.125 -0.3125q0.734375 0 1.4375 0.09375q0.71875 0.09375 1.53125 0.34375l-0.40625 1.515625q-0.703125 -0.25 -1.296875 -0.328125q-0.578125 -0.078125 -1.171875 -0.078125q-0.765625 0 -1.453125 0.203125q-0.6875 0.203125 -1.1875 0.640625q-0.5 0.4375 -0.796875 1.140625q-0.296875 0.6875 -0.296875 1.671875q0 0.9375 0.265625 1.609375q0.28125 0.671875 0.78125 1.109375q0.515625 0.4375 1.21875 0.65625q0.703125 0.203125 1.546875 0.203125q0.6875 0 1.3125 -0.078125q0.625 -0.078125 1.375 -0.328125l0.265625 1.46875q-0.75 0.28125 -1.515625 0.390625q-0.765625 0.125 -1.671875 0.125q-1.1875 0 -2.1875 -0.328125q-0.984375 -0.328125 -1.703125 -0.96875q-0.71875 -0.640625 -1.109375 -1.609375q-0.390625 -0.96875 -0.390625 -2.25zm18.773468 4.640625q-0.578125 0.15625 -1.53125 0.328125q-0.953125 0.171875 -2.234375 0.171875q-1.125 0 -1.875 -0.328125q-0.75 -0.34375 -1.21875 -0.9375q-0.46875 -0.609375 -0.65625 -1.4375q-0.1875 -0.84375 -0.1875 -1.84375l0 -5.5625l1.75 0l0 5.171875q0 1.84375 0.53125 2.609375q0.546875 0.765625 1.828125 0.765625q0.28125 0 0.5625 -0.015625q0.296875 -0.03125 0.546875 -0.0625q0.265625 -0.03125 0.453125 -0.0625q0.1875 -0.03125 0.25 -0.046875l0 -8.359375l1.78125 0l0 9.609375zm6.6953735 -9.609375l4.1718445 0l0 1.46875l-4.1718445 0l0 4.609375q0 0.734375 0.09375 1.203125q0.109375 0.46875 0.359375 0.765625q0.25 0.28125 0.625 0.390625q0.390625 0.109375 0.9375 0.109375q0.7812195 0 1.2499695 -0.125q0.46875 -0.125 0.890625 -0.34375l0.25 1.5q-0.296875 0.125 -0.953125 0.328125q-0.640625 0.21875 -1.6093445 0.21875q-1.109375 0 -1.8125 -0.25q-0.703125 -0.265625 -1.09375 -0.765625q-0.390625 -0.515625 -0.546875 -1.265625q-0.140625 -0.765625 -0.140625 -1.765625l0 -4.609375l-2.09375 0l0 -1.46875l2.09375 0l0 -2.78125l1.75 -0.296875l0 3.078125zm9.929718 -1.546875q-0.546875 0 -0.953125 -0.375q-0.40625 -0.390625 -0.40625 -1.046875q0 -0.65625 0.40625 -1.046875q0.40625 -0.390625 0.953125 -0.390625q0.578125 0 0.96875 0.390625q0.40625 0.390625 0.40625 1.046875q0 0.65625 -0.40625 1.046875q-0.390625 0.375 -0.96875 0.375zm-0.4375 3.015625l-2.859375 0l0 -1.46875l4.609375 0l0 6.078125q0 1.46875 0.390625 1.96875q0.40625 0.5 1.21875 0.5q0.625 0 1.140625 -0.140625q0.53125 -0.15625 0.828125 -0.328125l0.25 1.5q-0.125 0.0625 -0.359375 0.15625q-0.234375 0.09375 -0.546875 0.171875q-0.3125 0.09375 -0.6875 0.15625q-0.359375 0.0625 -0.765625 0.0625q-0.9375 0 -1.5625 -0.25q-0.609375 -0.265625 -0.984375 -0.765625q-0.375 -0.515625 -0.53125 -1.265625q-0.140625 -0.765625 -0.140625 -1.765625l0 -4.609375zm16.460999 3.46875q0 1.171875 -0.328125 2.125q-0.328125 0.953125 -0.9375 1.640625q-0.59375 0.671875 -1.421875 1.046875q-0.828125 0.375 -1.8125 0.375q-0.96875 0 -1.796875 -0.375q-0.8125 -0.375 -1.40625 -1.046875q-0.59375 -0.6875 -0.921875 -1.640625q-0.328125 -0.953125 -0.328125 -2.125q0 -1.171875 0.328125 -2.125q0.328125 -0.96875 0.921875 -1.640625q0.59375 -0.671875 1.40625 -1.03125q0.828125 -0.375 1.796875 -0.375q0.984375 0 1.8125 0.375q0.828125 0.359375 1.421875 1.03125q0.609375 0.671875 0.9375 1.640625q0.328125 0.953125 0.328125 2.125zm-1.8125 0q0 -1.6875 -0.734375 -2.65625q-0.71875 -0.96875 -1.953125 -0.96875q-1.21875 0 -1.9375 0.96875q-0.703125 0.96875 -0.703125 2.65625q0 1.671875 0.703125 2.640625q0.71875 0.96875 1.9375 0.96875q1.234375 0 1.953125 -0.96875q0.734375 -0.96875 0.734375 -2.640625zm4.1796875 -4.671875q0.953125 -0.234375 1.90625 -0.359375q0.953125 -0.125 1.78125 -0.125q1.984375 0 3.0 1.03125q1.015625 1.015625 1.015625 3.28125l0 5.796875l-1.75 0l0 -5.484375q0 -0.953125 -0.171875 -1.546875q-0.171875 -0.609375 -0.484375 -0.9375q-0.3125 -0.328125 -0.75 -0.453125q-0.4375 -0.125 -0.9375 -0.125q-0.4375 0 -0.921875 0.046875q-0.46875 0.046875 -0.921875 0.140625l0 8.359375l-1.765625 0l0 -9.625zm24.796997 8.390625q1.34375 0 2.046875 -0.515625q0.703125 -0.515625 0.703125 -1.53125q0 -0.625 -0.25 -1.0625q-0.25 -0.4375 -0.6875 -0.765625q-0.421875 -0.328125 -0.953125 -0.5625q-0.53125 -0.25 -1.09375 -0.46875q-0.640625 -0.265625 -1.234375 -0.578125q-0.578125 -0.3125 -1.03125 -0.734375q-0.453125 -0.4375 -0.71875 -1.015625q-0.265625 -0.578125 -0.265625 -1.359375q0 -1.734375 1.078125 -2.703125q1.09375 -0.96875 3.03125 -0.96875q0.53125 0 1.046875 0.078125q0.53125 0.078125 0.96875 0.1875q0.453125 0.09375 0.796875 0.25q0.359375 0.140625 0.578125 0.296875l-0.546875 1.46875q-0.4375 -0.25 -1.1875 -0.5q-0.734375 -0.265625 -1.65625 -0.265625q-0.953125 0 -1.671875 0.484375q-0.703125 0.46875 -0.703125 1.4375q0 0.546875 0.203125 0.9375q0.203125 0.375 0.546875 0.671875q0.359375 0.28125 0.828125 0.515625q0.484375 0.234375 1.03125 0.46875q0.8125 0.34375 1.484375 0.6875q0.671875 0.34375 1.140625 0.8125q0.484375 0.46875 0.75 1.109375q0.265625 0.640625 0.265625 1.546875q0 1.734375 -1.15625 2.671875q-1.15625 0.921875 -3.34375 0.921875q-0.703125 0 -1.328125 -0.109375q-0.609375 -0.09375 -1.09375 -0.234375q-0.46875 -0.15625 -0.84375 -0.296875q-0.359375 -0.15625 -0.546875 -0.28125l0.53125 -1.453125q0.4375 0.234375 1.265625 0.546875q0.828125 0.3125 2.015625 0.3125zm10.867249 -8.65625l4.171875 0l0 1.46875l-4.171875 0l0 4.609375q0 0.734375 0.09375 1.203125q0.109375 0.46875 0.359375 0.765625q0.25 0.28125 0.625 0.390625q0.390625 0.109375 0.9375 0.109375q0.78125 0 1.25 -0.125q0.46875 -0.125 0.890625 -0.34375l0.25 1.5q-0.296875 0.125 -0.953125 0.328125q-0.640625 0.21875 -1.609375 0.21875q-1.109375 0 -1.8125 -0.25q-0.703125 -0.265625 -1.09375 -0.765625q-0.390625 -0.515625 -0.546875 -1.265625q-0.140625 -0.765625 -0.140625 -1.765625l0 -4.609375l-2.09375 0l0 -1.46875l2.09375 0l0 -2.78125l1.75 -0.296875l0 3.078125zm10.9140625 8.625q0.65625 0 1.171875 -0.03125q0.53125 -0.046875 0.875 -0.109375l0 -2.9375q-0.34375 -0.109375 -0.828125 -0.171875q-0.46875 -0.0625 -1.0 -0.0625q-0.5 0 -0.96875 0.078125q-0.46875 0.0625 -0.828125 0.265625q-0.359375 0.1875 -0.59375 0.5q-0.234375 0.296875 -0.234375 0.765625q0 0.96875 0.640625 1.34375q0.65625 0.359375 1.765625 0.359375zm-0.171875 -8.859375q1.109375 0 1.859375 0.28125q0.765625 0.265625 1.234375 0.765625q0.46875 0.484375 0.65625 1.1875q0.203125 0.703125 0.203125 1.53125l0 6.1875q-0.625 0.109375 -1.640625 0.25q-1.015625 0.15625 -2.078125 0.15625q-0.8125 0 -1.578125 -0.140625q-0.765625 -0.140625 -1.359375 -0.484375q-0.59375 -0.359375 -0.96875 -0.96875q-0.359375 -0.625 -0.359375 -1.578125q0 -0.859375 0.375 -1.4375q0.375 -0.59375 0.953125 -0.953125q0.59375 -0.359375 1.34375 -0.515625q0.765625 -0.171875 1.53125 -0.171875q1.046875 0 2.046875 0.234375l0 -0.484375q0 -0.453125 -0.09375 -0.859375q-0.09375 -0.421875 -0.359375 -0.765625q-0.265625 -0.34375 -0.734375 -0.546875q-0.453125 -0.203125 -1.171875 -0.203125q-0.921875 0 -1.609375 0.140625q-0.671875 0.125 -1.046875 0.25l-0.203125 -1.453125q0.359375 -0.171875 1.203125 -0.296875q0.84375 -0.125 1.796875 -0.125zm6.4453735 5.203125q0 -1.34375 0.421875 -2.328125q0.421875 -0.984375 1.171875 -1.625q0.75 -0.640625 1.734375 -0.9375q1.0 -0.3125 2.125 -0.3125q0.734375 0 1.4375 0.09375q0.71875 0.09375 1.53125 0.34375l-0.40625 1.515625q-0.703125 -0.25 -1.296875 -0.328125q-0.578125 -0.078125 -1.171875 -0.078125q-0.765625 0 -1.453125 0.203125q-0.6875 0.203125 -1.1875 0.640625q-0.5 0.4375 -0.796875 1.140625q-0.296875 0.6875 -0.296875 1.671875q0 0.9375 0.265625 1.609375q0.28125 0.671875 0.78125 1.109375q0.515625 0.4375 1.21875 0.65625q0.703125 0.203125 1.546875 0.203125q0.6875 0 1.3125 -0.078125q0.625 -0.078125 1.375 -0.328125l0.265625 1.46875q-0.75 0.28125 -1.515625 0.390625q-0.765625 0.125 -1.671875 0.125q-1.1875 0 -2.1875 -0.328125q-0.984375 -0.328125 -1.703125 -0.96875q-0.71875 -0.640625 -1.109375 -1.609375q-0.390625 -0.96875 -0.390625 -2.25zm14.695374 -0.515625q0.578125 0.421875 1.296875 1.078125q0.734375 0.640625 1.4375 1.390625q0.71875 0.75 1.359375 1.53125q0.640625 0.78125 1.015625 1.4375l-2.078125 0q-0.40625 -0.65625 -1.015625 -1.34375q-0.59375 -0.703125 -1.265625 -1.34375q-0.671875 -0.640625 -1.34375 -1.171875q-0.671875 -0.53125 -1.203125 -0.890625l0 4.75l-1.765625 0l0 -14.484375l1.765625 -0.296875l0 9.015625q1.171875 -1.015625 2.34375 -2.03125q1.171875 -1.015625 2.109375 -2.09375l2.078125 0q-0.921875 1.078125 -2.21875 2.234375q-1.28125 1.15625 -2.515625 2.21875z" fill-rule="nonzero"/><path fill="#000000" fill-opacity="0.0" d="m4.6141734 114.850395l294.55118 0l0 218.01575l-294.55118 0z" fill-rule="evenodd"/><path stroke="#000000" stroke-width="1.0" stroke-linejoin="round" stroke-linecap="butt" stroke-dasharray="4.0,3.0" d="m4.6141734 114.850395l294.55118 0l0 218.01575l-294.55118 0z" fill-rule="evenodd"/><path fill="#b6d7a8" d="m24.346457 274.12335l255.08662 0l0 44.409454l-255.08662 0z" fill-rule="evenodd"/><path stroke="#000000" stroke-width="1.0" stroke-linejoin="round" stroke-linecap="butt" d="m24.346457 274.12335l255.08662 0l0 44.409454l-255.08662 0z" fill-rule="evenodd"/><path fill="#000000" d="m97.09261 294.6362q0 1.21875 -0.640625 2.15625q-0.640625 0.921875 -1.71875 1.421875q0.3125 0.515625 0.703125 1.171875q0.40625 0.640625 0.8125 1.390625q0.40625 0.734375 0.796875 1.515625q0.390625 0.765625 0.734375 1.515625l-1.875 0q-0.640625 -1.53125 -1.40625 -2.9375q-0.75 -1.40625 -1.453125 -2.28125q-0.125 0.015625 -0.375 0.015625q-0.25 0 -0.328125 0l-1.5 0l0 5.203125l-1.765625 0l0 -13.015625q0.328125 -0.078125 0.734375 -0.140625q0.421875 -0.0625 0.859375 -0.09375q0.4375 -0.03125 0.859375 -0.046875q0.421875 -0.03125 0.765625 -0.03125q2.390625 0 3.59375 1.046875q1.203125 1.046875 1.203125 3.109375zm-4.640625 -2.640625q-0.5 0 -0.953125 0.015625q-0.453125 0 -0.65625 0.046875l0 5.09375l1.140625 0q0.765625 0 1.375 -0.109375q0.609375 -0.109375 1.046875 -0.390625q0.4375 -0.28125 0.671875 -0.78125q0.234375 -0.515625 0.234375 -1.3125q0 -0.78125 -0.234375 -1.265625q-0.234375 -0.484375 -0.625 -0.765625q-0.390625 -0.296875 -0.90625 -0.40625q-0.515625 -0.125 -1.09375 -0.125zm15.273483 11.53125q-0.578125 0.15625 -1.53125 0.328125q-0.953125 0.171875 -2.234375 0.171875q-1.125 0 -1.875 -0.328125q-0.75 -0.34375 -1.21875 -0.9375q-0.46875 -0.609375 -0.65625 -1.4375q-0.1875 -0.84375 -0.1875 -1.84375l0 -5.5625l1.75 0l0 5.171875q0 1.84375 0.53125 2.609375q0.546875 0.765625 1.828125 0.765625q0.28125 0 0.5625 -0.015625q0.296875 -0.03125 0.546875 -0.0625q0.265625 -0.03125 0.453125 -0.0625q0.1875 -0.03125 0.25 -0.046875l0 -8.359375l1.78125 0l0 9.609375zm3.0234833 -9.34375q0.953125 -0.234375 1.90625 -0.359375q0.953125 -0.125 1.78125 -0.125q1.984375 0 3.0 1.03125q1.015625 1.015625 1.015625 3.28125l0 5.796875l-1.75 0l0 -5.484375q0 -0.953125 -0.171875 -1.546875q-0.171875 -0.609375 -0.484375 -0.9375q-0.3125 -0.328125 -0.75 -0.453125q-0.4375 -0.125 -0.9375 -0.125q-0.4375 0 -0.921875 0.046875q-0.46875 0.046875 -0.921875 0.140625l0 8.359375l-1.765625 0l0 -9.625zm14.335983 -0.265625l4.1718674 0l0 1.46875l-4.1718674 0l0 4.609375q0 0.734375 0.09375 1.203125q0.109375 0.46875 0.359375 0.765625q0.25 0.28125 0.625 0.390625q0.390625 0.109375 0.9375 0.109375q0.78125 0 1.2499924 -0.125q0.46875 -0.125 0.890625 -0.34375l0.25 1.5q-0.296875 0.125 -0.953125 0.328125q-0.6406174 0.21875 -1.6093674 0.21875q-1.109375 0 -1.8125 -0.25q-0.703125 -0.265625 -1.09375 -0.765625q-0.390625 -0.515625 -0.546875 -1.265625q-0.140625 -0.765625 -0.140625 -1.765625l0 -4.609375l-2.09375 0l0 -1.46875l2.09375 0l0 -2.78125l1.75 -0.296875l0 3.078125zm9.929726 -1.546875q-0.546875 0 -0.953125 -0.375q-0.40625 -0.390625 -0.40625 -1.046875q0 -0.65625 0.40625 -1.046875q0.40625 -0.390625 0.953125 -0.390625q0.578125 0 0.96875 0.390625q0.40625 0.390625 0.40625 1.046875q0 0.65625 -0.40625 1.046875q-0.390625 0.375 -0.96875 0.375zm-0.4375 3.015625l-2.859375 0l0 -1.46875l4.609375 0l0 6.078125q0 1.46875 0.390625 1.96875q0.40625 0.5 1.21875 0.5q0.625 0 1.140625 -0.140625q0.53125 -0.15625 0.828125 -0.328125l0.25 1.5q-0.125 0.0625 -0.359375 0.15625q-0.234375 0.09375 -0.546875 0.171875q-0.3125 0.09375 -0.6875 0.15625q-0.359375 0.0625 -0.765625 0.0625q-0.9375 0 -1.5625 -0.25q-0.609375 -0.265625 -0.984375 -0.765625q-0.375 -0.515625 -0.53125 -1.265625q-0.140625 -0.765625 -0.140625 -1.765625l0 -4.609375zm7.5234833 -1.203125q1.28125 -0.484375 2.40625 -0.484375q0.625 0 1.15625 0.1875q0.546875 0.171875 0.9375 0.5625q0.921875 -0.75 1.96875 -0.75q0.5 0 0.953125 0.203125q0.46875 0.1875 0.8125 0.578125q0.359375 0.375 0.5625 0.953125q0.21875 0.5625 0.21875 1.34375l0 7.03125l-1.59375 0l0 -7.078125q0 -0.765625 -0.34375 -1.171875q-0.34375 -0.40625 -0.84375 -0.40625q-0.265625 0 -0.546875 0.125q-0.265625 0.125 -0.5 0.40625q0.125 0.484375 0.125 1.09375l0 3.21875l-1.609375 0l0 -3.25q0 -0.75 -0.234375 -1.171875q-0.234375 -0.421875 -0.90625 -0.421875q-0.4375 0 -0.96875 0.1875l0 8.46875l-1.59375 0l0 -9.625zm15.320358 -0.5q2.0 0 3.078125 1.25q1.09375 1.234375 1.09375 3.78125l0 0.609375l-7.078125 0q0.109375 1.546875 1.015625 2.34375q0.90625 0.796875 2.546875 0.796875q0.9375 0 1.59375 -0.140625q0.671875 -0.15625 1.0 -0.328125l0.234375 1.5q-0.3125 0.15625 -1.15625 0.34375q-0.828125 0.203125 -1.859375 0.203125q-1.28125 0 -2.265625 -0.390625q-0.96875 -0.390625 -1.609375 -1.078125q-0.625 -0.6875 -0.953125 -1.625q-0.3125 -0.953125 -0.3125 -2.0625q0 -1.328125 0.390625 -2.3125q0.40625 -0.984375 1.0625 -1.609375q0.671875 -0.640625 1.5 -0.953125q0.84375 -0.328125 1.71875 -0.328125zm2.375 4.21875q0 -1.265625 -0.65625 -2.0q-0.65625 -0.734375 -1.75 -0.734375q-0.609375 0 -1.125 0.234375q-0.5 0.234375 -0.859375 0.625q-0.359375 0.375 -0.578125 0.875q-0.203125 0.484375 -0.265625 1.0l5.234375 0zm23.234467 5.359375q-0.75 0.421875 -1.59375 0.625q-0.84375 0.203125 -1.796875 0.203125q-1.171875 0 -2.171875 -0.40625q-0.984375 -0.421875 -1.71875 -1.265625q-0.71875 -0.84375 -1.140625 -2.140625q-0.40625 -1.3125 -0.40625 -3.078125q0 -1.6875 0.4375 -2.96875q0.4375 -1.28125 1.171875 -2.15625q0.75 -0.875 1.75 -1.3125q1.015625 -0.453125 2.140625 -0.453125q0.78125 0 1.609375 0.21875q0.828125 0.203125 1.609375 0.703125l-0.515625 1.4375q-1.40625 -0.796875 -2.640625 -0.796875q-0.875 0 -1.578125 0.375q-0.6875 0.359375 -1.171875 1.0625q-0.484375 0.703125 -0.765625 1.6875q-0.265625 0.984375 -0.265625 2.203125q0 1.359375 0.28125 2.375q0.296875 1.0 0.8125 1.65625q0.515625 0.65625 1.21875 0.984375q0.71875 0.3125 1.5625 0.3125q0.609375 0 1.28125 -0.15625q0.6875 -0.15625 1.421875 -0.5625l0.46875 1.453125zm10.664108 -4.40625q0 1.171875 -0.328125 2.125q-0.328125 0.953125 -0.9375 1.640625q-0.59375 0.671875 -1.421875 1.046875q-0.828125 0.375 -1.8125 0.375q-0.96875 0 -1.796875 -0.375q-0.8125 -0.375 -1.40625 -1.046875q-0.59375 -0.6875 -0.921875 -1.640625q-0.328125 -0.953125 -0.328125 -2.125q0 -1.171875 0.328125 -2.125q0.328125 -0.96875 0.921875 -1.640625q0.59375 -0.671875 1.40625 -1.03125q0.828125 -0.375 1.796875 -0.375q0.984375 0 1.8125 0.375q0.828125 0.359375 1.421875 1.03125q0.609375 0.671875 0.9375 1.640625q0.328125 0.953125 0.328125 2.125zm-1.8125 0q0 -1.6875 -0.734375 -2.65625q-0.71875 -0.96875 -1.953125 -0.96875q-1.21875 0 -1.9375 0.96875q-0.703125 0.96875 -0.703125 2.65625q0 1.671875 0.703125 2.640625q0.71875 0.96875 1.9375 0.96875q1.234375 0 1.953125 -0.96875q0.734375 -0.96875 0.734375 -2.640625zm10.039108 -2.859375q-0.296875 -0.265625 -0.875 -0.515625q-0.578125 -0.25 -1.1875 -0.25q-0.703125 0 -1.203125 0.28125q-0.5 0.28125 -0.828125 0.765625q-0.3125 0.46875 -0.46875 1.140625q-0.140625 0.671875 -0.140625 1.4375q0 1.734375 0.796875 2.671875q0.8125 0.9375 2.125 0.9375q0.65625 0 1.109375 -0.0625q0.46875 -0.0625 0.671875 -0.125l0 -6.28125zm0 -6.671875l1.78125 -0.296875l0 14.5q-0.578125 0.171875 -1.484375 0.34375q-0.890625 0.171875 -2.078125 0.171875q-1.078125 0 -1.953125 -0.359375q-0.875 -0.359375 -1.5 -1.03125q-0.609375 -0.671875 -0.953125 -1.625q-0.328125 -0.96875 -0.328125 -2.171875q0 -1.140625 0.28125 -2.09375q0.28125 -0.953125 0.828125 -1.625q0.5625 -0.6875 1.34375 -1.0625q0.78125 -0.390625 1.78125 -0.390625q0.796875 0 1.390625 0.1875q0.59375 0.1875 0.890625 0.40625l0 -4.953125zm8.820358 4.359375q2.0 0 3.078125 1.25q1.09375 1.234375 1.09375 3.78125l0 0.609375l-7.078125 0q0.109375 1.546875 1.015625 2.34375q0.90625 0.796875 2.546875 0.796875q0.9375 0 1.59375 -0.140625q0.671875 -0.15625 1.0 -0.328125l0.234375 1.5q-0.3125 0.15625 -1.15625 0.34375q-0.828125 0.203125 -1.859375 0.203125q-1.28125 0 -2.265625 -0.390625q-0.96875 -0.390625 -1.609375 -1.078125q-0.625 -0.6875 -0.953125 -1.625q-0.3125 -0.953125 -0.3125 -2.0625q0 -1.328125 0.390625 -2.3125q0.40625 -0.984375 1.0625 -1.609375q0.671875 -0.640625 1.5 -0.953125q0.84375 -0.328125 1.71875 -0.328125zm2.375 4.21875q0 -1.265625 -0.65625 -2.0q-0.65625 -0.734375 -1.75 -0.734375q-0.609375 0 -1.125 0.234375q-0.5 0.234375 -0.859375 0.625q-0.359375 0.375 -0.578125 0.875q-0.203125 0.484375 -0.265625 1.0l5.234375 0z" fill-rule="nonzero"/><path fill="#000000" fill-opacity="0.0" d="m151.88452 237.93832l0 36.188965" fill-rule="evenodd"/><path stroke="#000000" stroke-width="1.0" stroke-linejoin="round" stroke-linecap="butt" d="m151.88452 241.3654l0 26.761887" fill-rule="evenodd"/><path fill="#000000" stroke="#000000" stroke-width="1.0" stroke-linecap="butt" d="m151.88452 241.3654l1.1245728 1.124588l-1.1245728 -3.0897675l-1.124588 3.0897675z" fill-rule="evenodd"/><path fill="#000000" stroke="#000000" stroke-width="1.0" stroke-linecap="butt" d="m150.23279 268.1273l1.6517334 4.5381165l1.6517181 -4.5381165z" fill-rule="evenodd"/><path fill="#000000" fill-opacity="0.0" d="m108.54593 110.20009l86.67717 0l0 44.409454l-86.67717 0z" fill-rule="evenodd"/><path fill="#000000" d="m145.07585 130.50821q0 1.21875 -0.640625 2.15625q-0.640625 0.921875 -1.71875 1.421875q0.3125 0.515625 0.703125 1.171875q0.40625 0.640625 0.8125 1.390625q0.40625 0.734375 0.796875 1.515625q0.390625 0.765625 0.734375 1.515625l-1.875 0q-0.640625 -1.53125 -1.40625 -2.9375q-0.75 -1.40625 -1.453125 -2.28125q-0.125 0.015625 -0.375 0.015625q-0.25 0 -0.328125 0l-1.5 0l0 5.203125l-1.765625 0l0 -13.015625q0.328125 -0.078125 0.734375 -0.140625q0.421875 -0.0625 0.859375 -0.09375q0.4375 -0.03125 0.859375 -0.046875q0.421875 -0.03125 0.765625 -0.03125q2.390625 0 3.59375 1.046875q1.203125 1.046875 1.203125 3.109375zm-4.640625 -2.640625q-0.5 0 -0.953125 0.015625q-0.453125 0 -0.65625 0.046875l0 5.09375l1.140625 0q0.765625 0 1.375 -0.109375q0.609375 -0.109375 1.046875 -0.390625q0.4375 -0.28125 0.671875 -0.78125q0.234375 -0.515625 0.234375 -1.3125q0 -0.78125 -0.234375 -1.265625q-0.234375 -0.484375 -0.625 -0.765625q-0.390625 -0.296875 -0.90625 -0.40625q-0.515625 -0.125 -1.09375 -0.125zm6.7422333 5.203125q0 -1.765625 0.328125 -3.0625q0.34375 -1.3125 0.953125 -2.15625q0.625 -0.84375 1.484375 -1.25q0.875 -0.421875 1.9375 -0.421875q1.046875 0 1.921875 0.421875q0.875 0.40625 1.484375 1.25q0.625 0.84375 0.96875 2.15625q0.359375 1.296875 0.359375 3.0625q0 1.765625 -0.359375 3.078125q-0.34375 1.296875 -0.96875 2.15625q-0.609375 0.84375 -1.484375 1.25q-0.875 0.40625 -1.921875 0.40625q-1.0625 0 -1.9375 -0.40625q-0.859375 -0.40625 -1.484375 -1.25q-0.609375 -0.859375 -0.953125 -2.15625q-0.328125 -1.3125 -0.328125 -3.078125zm1.78125 0q0 2.59375 0.703125 3.984375q0.703125 1.390625 2.1875 1.390625q1.484375 0 2.234375 -1.390625q0.75 -1.390625 0.75 -3.984375q0 -2.609375 -0.75 -3.984375q-0.75 -1.390625 -2.234375 -1.390625q-1.484375 0 -2.1875 1.390625q-0.703125 1.375 -0.703125 3.984375zm13.617233 -0.03125l2.046875 -6.5625l1.640625 0q0.421875 3.109375 0.59375 6.375q0.1875 3.265625 0.34375 6.828125l-1.703125 0q-0.03125 -1.15625 -0.046875 -2.5q-0.015625 -1.34375 -0.0625 -2.765625q-0.03125 -1.4375 -0.0625 -2.90625q-0.03125 -1.46875 -0.0625 -2.859375l-1.921875 6.015625l-1.546875 0l-1.953125 -6.015625q-0.015625 1.390625 -0.0625 2.859375q-0.03125 1.453125 -0.0625 2.890625q-0.03125 1.4375 -0.0625 2.78125q-0.03125 1.34375 -0.046875 2.5l-1.703125 0q0.0625 -1.625 0.140625 -3.328125q0.09375 -1.703125 0.203125 -3.390625q0.125 -1.6875 0.28125 -3.328125q0.15625 -1.640625 0.34375 -3.15625l1.625 0l2.078125 6.5625z" fill-rule="nonzero"/><path fill="#ea9999" d="m32.811024 40.782154l127.055115 0l0 54.236217l-127.055115 0z" fill-rule="evenodd"/><path stroke="#000000" stroke-width="1.0" stroke-linejoin="round" stroke-linecap="butt" d="m32.811024 40.782154l127.055115 0l0 54.236217l-127.055115 0z" fill-rule="evenodd"/><path fill="#000000" d="m58.27608 69.03901q0 1.609375 -0.40625 2.734375q-0.390625 1.109375 -1.09375 1.8125q-0.703125 0.6875 -1.671875 1.015625q-0.953125 0.3125 -2.0625 0.3125q-1.15625 0 -2.34375 -0.28125l0 -11.187496q1.1875 -0.28125 2.34375 -0.28125q1.109375 0 2.0625 0.3125q0.96875 0.3125 1.671875 1.0312462q0.703125 0.703125 1.09375 1.828125q0.40625 1.109375 0.40625 2.703125zm-6.046875 4.5q0.46875 0.046875 0.953125 0.046875q0.84375 0 1.5 -0.25q0.65625 -0.25 1.09375 -0.796875q0.453125 -0.546875 0.6875 -1.421875q0.25 -0.875 0.25 -2.078125q0 -2.359375 -0.90625 -3.453125q-0.90625 -1.09375 -2.671875 -1.09375q-0.25 0 -0.484375 0.015625q-0.234375 0 -0.421875 0.03125l0 9.0zm11.546875 0.1875q0.5781212 0 1.0312462 -0.03125q0.46875 -0.046875 0.765625 -0.109375l0 -2.578125q-0.296875 -0.09375 -0.71875 -0.140625q-0.421875 -0.0625 -0.8906212 -0.0625q-0.421875 0 -0.84375 0.078125q-0.40625 0.0625 -0.71875 0.234375q-0.3125 0.15625 -0.515625 0.4375q-0.203125 0.265625 -0.203125 0.671875q0 0.84375 0.5625 1.171875q0.5625 0.328125 1.53125 0.328125zm-0.140625 -7.765625q0.9687462 0 1.6249962 0.25q0.671875 0.234375 1.078125 0.671875q0.40625 0.421875 0.578125 1.046875q0.171875 0.609375 0.171875 1.328125l0 5.40625q-0.546875 0.09375 -1.4375 0.21875q-0.875 0.140625 -1.8124962 0.140625q-0.703125 0 -1.375 -0.125q-0.671875 -0.109375 -1.203125 -0.421875q-0.515625 -0.3125 -0.84375 -0.84375q-0.3125 -0.546875 -0.3125 -1.390625q0 -0.75 0.328125 -1.25q0.328125 -0.515625 0.84375 -0.828125q0.515625 -0.328125 1.171875 -0.46875q0.65625 -0.140625 1.328125 -0.140625q0.9218712 0 1.7968712 0.203125l0 -0.421875q0 -0.390625 -0.09375 -0.75q-0.078125 -0.375 -0.3125 -0.671875q-0.234375 -0.296875 -0.640625 -0.46875q-0.390625 -0.1875 -1.0156212 -0.1875q-0.8125 0 -1.40625 0.125q-0.59375 0.109375 -0.90625 0.21875l-0.1875 -1.265625q0.3125 -0.15625 1.046875 -0.265625q0.734375 -0.109375 1.578125 -0.109375zm9.249996 0.203125l3.65625 0l0 1.28125l-3.65625 0l0 4.03125q0 0.65625 0.09375 1.078125q0.09375 0.40625 0.3125 0.65625q0.21875 0.25 0.546875 0.34375q0.34375 0.09375 0.828125 0.09375q0.671875 0 1.078125 -0.109375q0.40625 -0.125 0.78125 -0.296875l0.21875 1.296875q-0.25 0.109375 -0.828125 0.296875q-0.5625 0.1875 -1.40625 0.1875q-0.96875 0 -1.59375 -0.21875q-0.609375 -0.234375 -0.953125 -0.671875q-0.34375 -0.453125 -0.484375 -1.109375q-0.125 -0.671875 -0.125 -1.546875l0 -4.03125l-1.828125 0l0 -1.28125l1.828125 0l0 -2.4218712l1.53125 -0.265625l0 2.6874962zm9.546875 7.5625q0.578125 0 1.03125 -0.03125q0.46875 -0.046875 0.765625 -0.109375l0 -2.578125q-0.296875 -0.09375 -0.71875 -0.140625q-0.421875 -0.0625 -0.890625 -0.0625q-0.421875 0 -0.84375 0.078125q-0.40625 0.0625 -0.71875 0.234375q-0.3125 0.15625 -0.515625 0.4375q-0.203125 0.265625 -0.203125 0.671875q0 0.84375 0.5625 1.171875q0.5625 0.328125 1.53125 0.328125zm-0.140625 -7.765625q0.96875 0 1.625 0.25q0.671875 0.234375 1.078125 0.671875q0.40625 0.421875 0.578125 1.046875q0.171875 0.609375 0.171875 1.328125l0 5.40625q-0.546875 0.09375 -1.4375 0.21875q-0.875 0.140625 -1.8125 0.140625q-0.703125 0 -1.375 -0.125q-0.671875 -0.109375 -1.203125 -0.421875q-0.515625 -0.3125 -0.84375 -0.84375q-0.3125 -0.546875 -0.3125 -1.390625q0 -0.75 0.328125 -1.25q0.328125 -0.515625 0.84375 -0.828125q0.515625 -0.328125 1.171875 -0.46875q0.65625 -0.140625 1.328125 -0.140625q0.921875 0 1.796875 0.203125l0 -0.421875q0 -0.390625 -0.09375 -0.75q-0.078125 -0.375 -0.3125 -0.671875q-0.234375 -0.296875 -0.640625 -0.46875q-0.390625 -0.1875 -1.015625 -0.1875q-0.8125 0 -1.40625 0.125q-0.59375 0.109375 -0.90625 0.21875l-0.1875 -1.265625q0.3125 -0.15625 1.046875 -0.265625q0.734375 -0.109375 1.578125 -0.109375zm18.40625 7.78125q1.1875 0 1.796875 -0.453125q0.609375 -0.453125 0.609375 -1.34375q0 -0.546875 -0.21875 -0.921875q-0.21875 -0.375 -0.59375 -0.65625q-0.375 -0.296875 -0.84375 -0.515625q-0.46875 -0.21875 -0.953125 -0.40625q-0.5625 -0.21875 -1.078125 -0.5q-0.5 -0.28125 -0.90625 -0.65625q-0.40625 -0.375 -0.640625 -0.875q-0.21875 -0.5 -0.21875 -1.1875q0 -1.515625 0.9375 -2.3593712q0.953125 -0.859375 2.65625 -0.859375q0.46875 0 0.921875 0.078125q0.453125 0.0625 0.84375 0.15625q0.40625 0.078125 0.703125 0.21875q0.3125 0.125 0.5 0.265625l-0.484375 1.2812462q-0.375 -0.21875 -1.03125 -0.4375q-0.65625 -0.234375 -1.453125 -0.234375q-0.84375 0 -1.46875 0.421875q-0.609375 0.421875 -0.609375 1.25q0 0.484375 0.171875 0.828125q0.1875 0.328125 0.5 0.59375q0.3125 0.25 0.71875 0.453125q0.40625 0.203125 0.890625 0.40625q0.71875 0.296875 1.296875 0.59375q0.59375 0.296875 1.0 0.71875q0.421875 0.40625 0.65625 0.96875q0.234375 0.5625 0.234375 1.359375q0 1.515625 -1.015625 2.328125q-1.015625 0.8125 -2.921875 0.8125q-0.609375 0 -1.15625 -0.09375q-0.53125 -0.078125 -0.953125 -0.203125q-0.421875 -0.140625 -0.75 -0.265625q-0.3125 -0.140625 -0.46875 -0.25l0.46875 -1.265625q0.359375 0.203125 1.09375 0.484375q0.734375 0.265625 1.765625 0.265625zm9.5 -7.578125l3.65625 0l0 1.28125l-3.65625 0l0 4.03125q0 0.65625 0.09375 1.078125q0.09375 0.40625 0.3125 0.65625q0.21875 0.25 0.546875 0.34375q0.34375 0.09375 0.828125 0.09375q0.671875 0 1.078125 -0.109375q0.40625 -0.125 0.78125 -0.296875l0.21875 1.296875q-0.25 0.109375 -0.828125 0.296875q-0.5625 0.1875 -1.40625 0.1875q-0.96875 0 -1.59375 -0.21875q-0.609375 -0.234375 -0.953125 -0.671875q-0.34375 -0.453125 -0.484375 -1.109375q-0.125 -0.671875 -0.125 -1.546875l0 -4.03125l-1.828125 0l0 -1.28125l1.828125 0l0 -2.4218712l1.53125 -0.265625l0 2.6874962zm9.546875 7.5625q0.578125 0 1.03125 -0.03125q0.46875 -0.046875 0.765625 -0.109375l0 -2.578125q-0.296875 -0.09375 -0.71875 -0.140625q-0.421875 -0.0625 -0.890625 -0.0625q-0.421875 0 -0.84375 0.078125q-0.40625 0.0625 -0.71875 0.234375q-0.3125 0.15625 -0.515625 0.4375q-0.203125 0.265625 -0.203125 0.671875q0 0.84375 0.5625 1.171875q0.5625 0.328125 1.53125 0.328125zm-0.140625 -7.765625q0.96875 0 1.625 0.25q0.671875 0.234375 1.078125 0.671875q0.40625 0.421875 0.578125 1.046875q0.171875 0.609375 0.171875 1.328125l0 5.40625q-0.546875 0.09375 -1.4375 0.21875q-0.875 0.140625 -1.8125 0.140625q-0.703125 0 -1.375 -0.125q-0.671875 -0.109375 -1.203125 -0.421875q-0.515625 -0.3125 -0.84375 -0.84375q-0.3125 -0.546875 -0.3125 -1.390625q0 -0.75 0.328125 -1.25q0.328125 -0.515625 0.84375 -0.828125q0.515625 -0.328125 1.171875 -0.46875q0.65625 -0.140625 1.328125 -0.140625q0.921875 0 1.796875 0.203125l0 -0.421875q0 -0.390625 -0.09375 -0.75q-0.078125 -0.375 -0.3125 -0.671875q-0.234375 -0.296875 -0.640625 -0.46875q-0.390625 -0.1875 -1.015625 -0.1875q-0.8125 0 -1.40625 0.125q-0.59375 0.109375 -0.90625 0.21875l-0.1875 -1.265625q0.3125 -0.15625 1.046875 -0.265625q0.734375 -0.109375 1.578125 -0.109375zm5.640625 4.546875q0 -1.171875 0.359375 -2.03125q0.375 -0.859375 1.03125 -1.421875q0.65625 -0.5625 1.515625 -0.828125q0.875 -0.265625 1.859375 -0.265625q0.640625 0 1.265625 0.09375q0.625 0.078125 1.328125 0.296875l-0.359375 1.328125q-0.609375 -0.234375 -1.125 -0.296875q-0.515625 -0.0625 -1.03125 -0.0625q-0.671875 0 -1.265625 0.1875q-0.59375 0.171875 -1.046875 0.5625q-0.4375 0.375 -0.703125 0.984375q-0.25 0.59375 -0.25 1.453125q0 0.828125 0.234375 1.421875q0.25 0.578125 0.6875 0.96875q0.4375 0.375 1.046875 0.5625q0.625 0.1875 1.375 0.1875q0.59375 0 1.140625 -0.0625q0.546875 -0.078125 1.203125 -0.296875l0.21875 1.28125q-0.640625 0.25 -1.3125 0.34375q-0.671875 0.109375 -1.453125 0.109375q-1.046875 0 -1.921875 -0.28125q-0.859375 -0.296875 -1.484375 -0.859375q-0.625 -0.5625 -0.96875 -1.40625q-0.34375 -0.84375 -0.34375 -1.96875zm12.84375 -0.4375q0.5 0.359375 1.140625 0.9375q0.640625 0.5625 1.265625 1.21875q0.625 0.65625 1.171875 1.34375q0.5625 0.671875 0.90625 1.25l-1.828125 0q-0.359375 -0.578125 -0.890625 -1.1875q-0.515625 -0.609375 -1.109375 -1.15625q-0.578125 -0.5625 -1.171875 -1.03125q-0.578125 -0.46875 -1.046875 -0.78125l0 4.15625l-1.546875 0l0 -12.671871l1.546875 -0.25l0 7.890621q1.03125 -0.90625 2.046875 -1.78125q1.03125 -0.890625 1.84375 -1.84375l1.8125 0q-0.796875 0.953125 -1.9375 1.96875q-1.125 1.0 -2.203125 1.9375z" fill-rule="nonzero"/><path fill="#ea9999" d="m582.37854 40.782154l127.055115 0l0 54.236217l-127.055115 0z" fill-rule="evenodd"/><path stroke="#000000" stroke-width="1.0" stroke-linejoin="round" stroke-linecap="butt" d="m582.37854 40.782154l127.055115 0l0 54.236217l-127.055115 0z" fill-rule="evenodd"/><path fill="#000000" d="m634.203 63.273388l1.53125 0l0 11.546871l-1.53125 0l0 -5.375l-4.578125 0l0 5.375l-1.53125 0l0 -11.546871l1.53125 0l0 4.874996l4.578125 0l0 -4.874996zm7.203125 2.6874962q1.75 0 2.703125 1.09375q0.953125 1.09375 0.953125 3.3125l0 0.53125l-6.1875 0q0.09375 1.34375 0.875 2.046875q0.796875 0.703125 2.234375 0.703125q0.828125 0 1.40625 -0.125q0.578125 -0.140625 0.875 -0.28125l0.203125 1.296875q-0.28125 0.15625 -1.015625 0.3125q-0.71875 0.171875 -1.625 0.171875q-1.125 0 -1.984375 -0.34375q-0.84375 -0.34375 -1.40625 -0.9375q-0.546875 -0.59375 -0.828125 -1.421875q-0.28125 -0.84375 -0.28125 -1.8125q0 -1.15625 0.34375 -2.015625q0.359375 -0.859375 0.9375 -1.40625q0.578125 -0.5625 1.296875 -0.84375q0.734375 -0.28125 1.5 -0.28125zm2.09375 3.6875q0 -1.09375 -0.578125 -1.734375q-0.578125 -0.65625 -1.53125 -0.65625q-0.546875 0 -0.984375 0.21875q-0.4375 0.203125 -0.75 0.546875q-0.3125 0.328125 -0.5 0.765625q-0.1875 0.421875 -0.25 0.859375l4.59375 0zm7.15625 4.078125q0.578125 0 1.03125 -0.03125q0.46875 -0.046875 0.765625 -0.109375l0 -2.578125q-0.296875 -0.09375 -0.71875 -0.140625q-0.421875 -0.0625 -0.890625 -0.0625q-0.421875 0 -0.84375 0.078125q-0.40625 0.0625 -0.71875 0.234375q-0.3125 0.15625 -0.515625 0.4375q-0.203125 0.265625 -0.203125 0.671875q0 0.84375 0.5625 1.171875q0.5625 0.328125 1.53125 0.328125zm-0.140625 -7.765625q0.96875 0 1.625 0.25q0.671875 0.234375 1.078125 0.671875q0.40625 0.421875 0.578125 1.046875q0.171875 0.609375 0.171875 1.328125l0 5.40625q-0.546875 0.09375 -1.4375 0.21875q-0.875 0.140625 -1.8125 0.140625q-0.703125 0 -1.375 -0.125q-0.671875 -0.109375 -1.203125 -0.421875q-0.515625 -0.3125 -0.84375 -0.84375q-0.3125 -0.546875 -0.3125 -1.390625q0 -0.75 0.328125 -1.25q0.328125 -0.515625 0.84375 -0.828125q0.515625 -0.328125 1.171875 -0.46875q0.65625 -0.140625 1.328125 -0.140625q0.921875 0 1.796875 0.203125l0 -0.421875q0 -0.390625 -0.09375 -0.75q-0.078125 -0.375 -0.3125 -0.671875q-0.234375 -0.296875 -0.640625 -0.46875q-0.390625 -0.1875 -1.015625 -0.1875q-0.8125 0 -1.40625 0.125q-0.59375 0.109375 -0.90625 0.21875l-0.1875 -1.265625q0.3125 -0.15625 1.046875 -0.265625q0.734375 -0.109375 1.578125 -0.109375zm11.71875 4.546875q0 -1.515625 -0.71875 -2.34375q-0.703125 -0.828125 -1.84375 -0.828125q-0.625 0 -1.0 0.0625q-0.359375 0.046875 -0.5625 0.125l0 5.46875q0.265625 0.25 0.765625 0.453125q0.5 0.203125 1.046875 0.203125q0.609375 0 1.046875 -0.234375q0.4375 -0.25 0.71875 -0.671875q0.28125 -0.421875 0.40625 -0.984375q0.140625 -0.578125 0.140625 -1.25zm1.578125 0q0 0.984375 -0.25 1.828125q-0.25 0.828125 -0.734375 1.421875q-0.46875 0.59375 -1.15625 0.9375q-0.6875 0.328125 -1.5625 0.328125q-0.703125 0 -1.21875 -0.171875q-0.515625 -0.15625 -0.78125 -0.359375l0 3.40625l-1.546875 0l0 -11.46875q0.5 -0.15625 1.296875 -0.296875q0.796875 -0.15625 1.8125 -0.15625q0.9375 0 1.703125 0.328125q0.765625 0.3125 1.296875 0.90625q0.546875 0.578125 0.84375 1.421875q0.296875 0.828125 0.296875 1.875z" fill-rule="nonzero"/><path fill="#ea9999" d="m450.1709 40.782154l127.055115 0l0 54.236217l-127.055115 0z" fill-rule="evenodd"/><path stroke="#000000" stroke-width="1.0" stroke-linejoin="round" stroke-linecap="butt" d="m450.1709 40.782154l127.055115 0l0 54.236217l-127.055115 0z" fill-rule="evenodd"/><path fill="#000000" d="m485.73752 58.023388l1.78125 -5.75l1.4375 0q0.375 2.71875 0.53125 5.578125q0.15625 2.859375 0.296875 5.96875l-1.5 0q-0.015625 -1.0 -0.03125 -2.171875q-0.015625 -1.1875 -0.046875 -2.4375q-0.03125 -1.25 -0.0625 -2.53125q-0.015625 -1.296875 -0.0625 -2.5l-1.671875 5.25l-1.34375 0l-1.71875 -5.25q-0.015625 1.203125 -0.046875 2.484375q-0.03125 1.28125 -0.0625 2.546875q-0.015625 1.25 -0.046875 2.4375q-0.03125 1.171875 -0.046875 2.171875l-1.5 0q0.0625 -1.421875 0.125 -2.90625q0.078125 -1.5 0.171875 -2.96875q0.109375 -1.46875 0.25 -2.90625q0.140625 -1.4375 0.3125 -2.765625l1.421875 0l1.8125 5.75zm12.640625 5.546875q-0.5 0.140625 -1.328125 0.28125q-0.828125 0.15624619 -1.953125 0.15624619q-0.984375 0 -1.640625 -0.2812462q-0.65625 -0.296875 -1.0625 -0.828125q-0.40625 -0.53125 -0.578125 -1.25q-0.171875 -0.734375 -0.171875 -1.609375l0 -4.875l1.53125 0l0 4.53125q0 1.609375 0.46875 2.28125q0.484375 0.671875 1.609375 0.671875q0.234375 0 0.484375 -0.015625q0.25 -0.03125 0.46875 -0.046875q0.234375 -0.03125 0.40625 -0.0625q0.171875 -0.03125 0.21875 -0.046875l0 -7.3125l1.546875 0l0 8.40625zm5.859375 -8.40625l3.65625 0l0 1.28125l-3.65625 0l0 4.03125q0 0.65625 0.09375 1.078125q0.09375 0.40625 0.3125 0.65625q0.21875 0.25 0.546875 0.34375q0.34375 0.09375 0.828125 0.09375q0.671875 0 1.078125 -0.109375q0.40625 -0.125 0.78125 -0.296875l0.21875 1.296875q-0.25 0.109375 -0.828125 0.296875q-0.5625 0.18749619 -1.40625 0.18749619q-0.96875 0 -1.59375 -0.21874619q-0.609375 -0.234375 -0.953125 -0.671875q-0.34375 -0.453125 -0.484375 -1.109375q-0.125 -0.671875 -0.125 -1.546875l0 -4.03125l-1.828125 0l0 -1.28125l1.828125 0l0 -2.421875l1.53125 -0.265625l0 2.6875zm9.5469055 7.5625q0.578125 0 1.03125 -0.03125q0.46875 -0.046875 0.765625 -0.109375l0 -2.578125q-0.296875 -0.09375 -0.71875 -0.140625q-0.421875 -0.0625 -0.890625 -0.0625q-0.421875 0 -0.84375 0.078125q-0.40625 0.0625 -0.71875 0.234375q-0.3125 0.15625 -0.5156555 0.4375q-0.203125 0.265625 -0.203125 0.671875q0 0.84375 0.5625305 1.171875q0.5625 0.328125 1.53125 0.328125zm-0.140625 -7.765625q0.96875 0 1.625 0.25q0.671875 0.234375 1.078125 0.671875q0.40625 0.421875 0.578125 1.046875q0.171875 0.609375 0.171875 1.328125l0 5.40625q-0.546875 0.09375 -1.4375 0.21875q-0.875 0.14062119 -1.8125 0.14062119q-0.703125 0 -1.375 -0.124996185q-0.6719055 -0.109375 -1.2031555 -0.421875q-0.515625 -0.3125 -0.84375 -0.84375q-0.3125 -0.546875 -0.3125 -1.390625q0 -0.75 0.328125 -1.25q0.328125 -0.515625 0.84375 -0.828125q0.515625 -0.328125 1.1719055 -0.46875q0.65625 -0.140625 1.328125 -0.140625q0.921875 0 1.796875 0.203125l0 -0.421875q0 -0.390625 -0.09375 -0.75q-0.078125 -0.375 -0.3125 -0.671875q-0.234375 -0.296875 -0.640625 -0.46875q-0.390625 -0.1875 -1.015625 -0.1875q-0.8125 0 -1.40625 0.125q-0.5937805 0.109375 -0.9062805 0.21875l-0.1875 -1.265625q0.3125 -0.15625 1.0469055 -0.265625q0.734375 -0.109375 1.578125 -0.109375zm7.59375 0.515625q0.28125 -0.15625 0.8125 -0.328125q0.53125 -0.1875 1.1875 -0.1875q0.875 0 1.5625 0.34375q0.6875 0.328125 1.15625 0.921875q0.484375 0.59375 0.734375 1.4375q0.25 0.828125 0.25 1.828125q0 1.046875 -0.296875 1.890625q-0.296875 0.828125 -0.84375 1.421875q-0.53125 0.59375 -1.296875 0.90625q-0.765625 0.3124962 -1.703125 0.3124962q-1.015625 0 -1.828125 -0.15624619q-0.796875 -0.140625 -1.28125 -0.296875l0 -12.421875l1.546875 -0.25l0 4.578125zm0 7.0q0.359375 0.09375 0.703125 0.140625q0.359375 0.046875 0.671875 0.046875q1.296875 0 2.015625 -0.796875q0.734375 -0.796875 0.734375 -2.375q0 -0.671875 -0.140625 -1.25q-0.125 -0.59375 -0.40625 -1.015625q-0.28125 -0.421875 -0.71875 -0.65625q-0.4375 -0.25 -1.046875 -0.25q-0.546875 0 -1.046875 0.21875q-0.5 0.203125 -0.765625 0.453125l0 5.484375zm12.765625 1.5468712q-0.828125 0 -1.375 -0.21874619q-0.53125 -0.234375 -0.859375 -0.671875q-0.3125 -0.453125 -0.453125 -1.109375q-0.125 -0.671875 -0.125 -1.546875l0 -8.1875l-2.5 0l0 -1.296875l4.03125 0l0 9.484375q0 0.65625 0.078125 1.078125q0.09375 0.40625 0.265625 0.65625q0.1875 0.25 0.4375 0.34375q0.265625 0.09375 0.625 0.09375q0.546875 0 1.0 -0.125q0.46875 -0.140625 0.734375 -0.28125l0.21875 1.296875q-0.109375 0.0625 -0.3125 0.140625q-0.203125 0.078125 -0.484375 0.15625q-0.28125 0.078125 -0.609375 0.125q-0.328125 0.062496185 -0.671875 0.062496185zm7.84375 -9.062496q1.75 0 2.703125 1.09375q0.953125 1.09375 0.953125 3.3125l0 0.53125l-6.1875 0q0.09375 1.34375 0.875 2.046875q0.796875 0.703125 2.234375 0.703125q0.828125 0 1.40625 -0.125q0.578125 -0.140625 0.875 -0.28125l0.203125 1.296875q-0.28125 0.15625 -1.015625 0.3125q-0.71875 0.17187119 -1.625 0.17187119q-1.125 0 -1.984375 -0.3437462q-0.84375 -0.34375 -1.40625 -0.9375q-0.546875 -0.59375 -0.828125 -1.421875q-0.28125 -0.84375 -0.28125 -1.8125q0 -1.15625 0.34375 -2.015625q0.359375 -0.859375 0.9375 -1.40625q0.578125 -0.5625 1.296875 -0.84375q0.734375 -0.28125 1.5 -0.28125zm2.09375 3.6875q0 -1.09375 -0.578125 -1.734375q-0.578125 -0.65625 -1.53125 -0.65625q-0.546875 0 -0.984375 0.21875q-0.4375 0.203125 -0.75 0.546875q-0.3125 0.328125 -0.5 0.765625q-0.1875 0.421875 -0.25 0.859375l4.59375 0z" fill-rule="nonzero"/><path fill="#000000" d="m469.3469 80.13276l1.53125 0l0 5.40625q-0.34375 0.125 -1.140625 0.328125q-0.78125 0.203125 -1.84375 0.203125q-1.046875 0 -1.90625 -0.40625q-0.84375 -0.40625 -1.453125 -1.171875q-0.609375 -0.765625 -0.953125 -1.890625q-0.328125 -1.125 -0.328125 -2.5625q0 -1.453125 0.375 -2.578125q0.375 -1.125 1.015625 -1.875q0.640625 -0.765625 1.5 -1.171875q0.859375 -0.40625 1.84375 -0.40625q0.640625 0 1.125 0.09375q0.484375 0.09375 0.828125 0.234375q0.34375 0.125 0.5625 0.265625q0.234375 0.140625 0.34375 0.21875l-0.5 1.28125q-0.4375 -0.34375 -1.03125 -0.546875q-0.578125 -0.21875 -1.234375 -0.21875q-0.703125 0 -1.3125 0.34375q-0.609375 0.328125 -1.046875 0.953125q-0.421875 0.609375 -0.671875 1.484375q-0.234375 0.859375 -0.234375 1.921875q0 1.046875 0.21875 1.90625q0.21875 0.859375 0.625 1.46875q0.40625 0.609375 1.015625 0.96875q0.609375 0.34375 1.390625 0.34375q0.546875 0 0.84375 -0.078125q0.296875 -0.078125 0.4375 -0.15625l0 -4.359375zm8.6875 5.890625q-0.828125 0 -1.375 -0.21875q-0.53125 -0.234375 -0.859375 -0.671875q-0.3125 -0.453125 -0.453125 -1.109375q-0.125 -0.671875 -0.125 -1.546875l0 -8.1875l-2.5 0l0 -1.296875l4.03125 0l0 9.484375q0 0.65625 0.078125 1.078125q0.09375 0.40625 0.265625 0.65625q0.1875 0.25 0.4375 0.34375q0.265625 0.09375 0.625 0.09375q0.546875 0 1.0 -0.125q0.46875 -0.140625 0.734375 -0.28125l0.21875 1.296875q-0.109375 0.0625 -0.3125 0.140625q-0.203125 0.078125 -0.484375 0.15625q-0.28125 0.078125 -0.609375 0.125q-0.328125 0.0625 -0.671875 0.0625zm11.59375 -4.53125q0 1.03125 -0.296875 1.859375q-0.28125 0.828125 -0.8125 1.421875q-0.515625 0.59375 -1.25 0.921875q-0.71875 0.328125 -1.578125 0.328125q-0.828125 0 -1.546875 -0.328125q-0.71875 -0.328125 -1.25 -0.921875q-0.515625 -0.59375 -0.8125 -1.421875q-0.28125 -0.828125 -0.28125 -1.859375q0 -1.03125 0.28125 -1.859375q0.296875 -0.84375 0.8125 -1.421875q0.53125 -0.59375 1.25 -0.921875q0.71875 -0.328125 1.546875 -0.328125q0.859375 0 1.578125 0.328125q0.734375 0.328125 1.25 0.921875q0.53125 0.578125 0.8125 1.421875q0.296875 0.828125 0.296875 1.859375zm-1.578125 0q0 -1.46875 -0.640625 -2.3125q-0.625 -0.859375 -1.71875 -0.859375q-1.0625 0 -1.6875 0.859375q-0.625 0.84375 -0.625 2.3125q0 1.453125 0.625 2.3125q0.625 0.84375 1.6875 0.84375q1.09375 0 1.71875 -0.84375q0.640625 -0.859375 0.640625 -2.3125zm5.203125 -4.015625q0.28125 -0.15625 0.8125 -0.328125q0.53125 -0.1875 1.1875 -0.1875q0.875 0 1.5625 0.34375q0.6875 0.328125 1.15625 0.921875q0.484375 0.59375 0.734375 1.4375q0.25 0.828125 0.25 1.828125q0 1.046875 -0.296875 1.890625q-0.296875 0.828125 -0.84375 1.421875q-0.53125 0.59375 -1.296875 0.90625q-0.765625 0.3125 -1.703125 0.3125q-1.015625 0 -1.828125 -0.15625q-0.796875 -0.140625 -1.28125 -0.296875l0 -12.421875l1.546875 -0.25l0 4.578125zm0 7.0q0.359375 0.09375 0.703125 0.140625q0.359375 0.046875 0.671875 0.046875q1.296875 0 2.015625 -0.796875q0.734375 -0.796875 0.734375 -2.375q0 -0.671875 -0.140625 -1.25q-0.125 -0.59375 -0.40625 -1.015625q-0.28125 -0.421875 -0.71875 -0.65625q-0.4375 -0.25 -1.046875 -0.25q-0.546875 0 -1.046875 0.21875q-0.5 0.203125 -0.765625 0.453125l0 5.484375zm11.203125 0.25q0.578125 0 1.03125 -0.03125q0.46875 -0.046875 0.765625 -0.109375l0 -2.578125q-0.296875 -0.09375 -0.71875 -0.140625q-0.421875 -0.0625 -0.890625 -0.0625q-0.421875 0 -0.84375 0.078125q-0.40625 0.0625 -0.71875 0.234375q-0.3125 0.15625 -0.515625 0.4375q-0.203125 0.265625 -0.203125 0.671875q0 0.84375 0.5625 1.171875q0.5625 0.328125 1.53125 0.328125zm-0.140625 -7.765625q0.96875 0 1.625 0.25q0.671875 0.234375 1.078125 0.671875q0.40625 0.421875 0.578125 1.046875q0.171875 0.609375 0.171875 1.328125l0 5.40625q-0.546875 0.09375 -1.4375 0.21875q-0.875 0.140625 -1.8125 0.140625q-0.703125 0 -1.375 -0.125q-0.671875 -0.109375 -1.203125 -0.421875q-0.515625 -0.3125 -0.84375 -0.84375q-0.3125 -0.546875 -0.3125 -1.390625q0 -0.75 0.328125 -1.25q0.328125 -0.515625 0.84375 -0.828125q0.515625 -0.328125 1.171875 -0.46875q0.65625 -0.140625 1.328125 -0.140625q0.921875 0 1.796875 0.203125l0 -0.421875q0 -0.390625 -0.09375 -0.75q-0.078125 -0.375 -0.3125 -0.671875q-0.234375 -0.296875 -0.640625 -0.46875q-0.390625 -0.1875 -1.015625 -0.1875q-0.8125 0 -1.40625 0.125q-0.59375 0.109375 -0.90625 0.21875l-0.1875 -1.265625q0.3125 -0.15625 1.046875 -0.265625q0.734375 -0.109375 1.578125 -0.109375zm11.0312805 9.0625q-0.828125 0 -1.375 -0.21875q-0.53125 -0.234375 -0.859375 -0.671875q-0.3125 -0.453125 -0.453125 -1.109375q-0.125 -0.671875 -0.125 -1.546875l0 -8.1875l-2.5000305 0l0 -1.296875l4.0312805 0l0 9.484375q0 0.65625 0.078125 1.078125q0.09375 0.40625 0.265625 0.65625q0.1875 0.25 0.4375 0.34375q0.265625 0.09375 0.625 0.09375q0.546875 0 1.0 -0.125q0.46875 -0.140625 0.734375 -0.28125l0.21875 1.296875q-0.109375 0.0625 -0.3125 0.140625q-0.203125 0.078125 -0.484375 0.15625q-0.28125 0.078125 -0.609375 0.125q-0.328125 0.0625 -0.671875 0.0625zm20.921875 -5.984375q0 1.609375 -0.40625 2.734375q-0.390625 1.109375 -1.09375 1.8125q-0.703125 0.6875 -1.671875 1.015625q-0.953125 0.3125 -2.0625 0.3125q-1.15625 0 -2.34375 -0.28125l0 -11.1875q1.1875 -0.28125 2.34375 -0.28125q1.109375 0 2.0625 0.3125q0.96875 0.3125 1.671875 1.03125q0.703125 0.703125 1.09375 1.828125q0.40625 1.109375 0.40625 2.703125zm-6.046875 4.5q0.46875 0.046875 0.953125 0.046875q0.84375 0 1.5 -0.25q0.65625 -0.25 1.09375 -0.796875q0.453125 -0.546875 0.6875 -1.421875q0.25 -0.875 0.25 -2.078125q0 -2.359375 -0.90625 -3.453125q-0.90625 -1.09375 -2.671875 -1.09375q-0.25 0 -0.484375 0.015625q-0.234375 0 -0.421875 0.03125l0 9.0zm11.546875 0.1875q0.578125 0 1.03125 -0.03125q0.46875 -0.046875 0.765625 -0.109375l0 -2.578125q-0.296875 -0.09375 -0.71875 -0.140625q-0.421875 -0.0625 -0.890625 -0.0625q-0.421875 0 -0.84375 0.078125q-0.40625 0.0625 -0.71875 0.234375q-0.3125 0.15625 -0.515625 0.4375q-0.203125 0.265625 -0.203125 0.671875q0 0.84375 0.5625 1.171875q0.5625 0.328125 1.53125 0.328125zm-0.140625 -7.765625q0.96875 0 1.625 0.25q0.671875 0.234375 1.078125 0.671875q0.40625 0.421875 0.578125 1.046875q0.171875 0.609375 0.171875 1.328125l0 5.40625q-0.546875 0.09375 -1.4375 0.21875q-0.875 0.140625 -1.8125 0.140625q-0.703125 0 -1.375 -0.125q-0.671875 -0.109375 -1.203125 -0.421875q-0.515625 -0.3125 -0.84375 -0.84375q-0.3125 -0.546875 -0.3125 -1.390625q0 -0.75 0.328125 -1.25q0.328125 -0.515625 0.84375 -0.828125q0.515625 -0.328125 1.171875 -0.46875q0.65625 -0.140625 1.328125 -0.140625q0.921875 0 1.796875 0.203125l0 -0.421875q0 -0.390625 -0.09375 -0.75q-0.078125 -0.375 -0.3125 -0.671875q-0.234375 -0.296875 -0.640625 -0.46875q-0.390625 -0.1875 -1.015625 -0.1875q-0.8125 0 -1.40625 0.125q-0.59375 0.109375 -0.90625 0.21875l-0.1875 -1.265625q0.3125 -0.15625 1.046875 -0.265625q0.734375 -0.109375 1.578125 -0.109375zm9.25 0.203125l3.65625 0l0 1.28125l-3.65625 0l0 4.03125q0 0.65625 0.09375 1.078125q0.09375 0.40625 0.3125 0.65625q0.21875 0.25 0.546875 0.34375q0.34375 0.09375 0.828125 0.09375q0.671875 0 1.078125 -0.109375q0.40625 -0.125 0.78125 -0.296875l0.21875 1.296875q-0.25 0.109375 -0.828125 0.296875q-0.5625 0.1875 -1.40625 0.1875q-0.96875 0 -1.59375 -0.21875q-0.609375 -0.234375 -0.953125 -0.671875q-0.34375 -0.453125 -0.484375 -1.109375q-0.125 -0.671875 -0.125 -1.546875l0 -4.03125l-1.828125 0l0 -1.28125l1.828125 0l0 -2.421875l1.53125 -0.265625l0 2.6875zm9.546875 7.5625q0.578125 0 1.03125 -0.03125q0.46875 -0.046875 0.765625 -0.109375l0 -2.578125q-0.296875 -0.09375 -0.71875 -0.140625q-0.421875 -0.0625 -0.890625 -0.0625q-0.421875 0 -0.84375 0.078125q-0.40625 0.0625 -0.71875 0.234375q-0.3125 0.15625 -0.515625 0.4375q-0.203125 0.265625 -0.203125 0.671875q0 0.84375 0.5625 1.171875q0.5625 0.328125 1.53125 0.328125zm-0.140625 -7.765625q0.96875 0 1.625 0.25q0.671875 0.234375 1.078125 0.671875q0.40625 0.421875 0.578125 1.046875q0.171875 0.609375 0.171875 1.328125l0 5.40625q-0.546875 0.09375 -1.4375 0.21875q-0.875 0.140625 -1.8125 0.140625q-0.703125 0 -1.375 -0.125q-0.671875 -0.109375 -1.203125 -0.421875q-0.515625 -0.3125 -0.84375 -0.84375q-0.3125 -0.546875 -0.3125 -1.390625q0 -0.75 0.328125 -1.25q0.328125 -0.515625 0.84375 -0.828125q0.515625 -0.328125 1.171875 -0.46875q0.65625 -0.140625 1.328125 -0.140625q0.921875 0 1.796875 0.203125l0 -0.421875q0 -0.390625 -0.09375 -0.75q-0.078125 -0.375 -0.3125 -0.671875q-0.234375 -0.296875 -0.640625 -0.46875q-0.390625 -0.1875 -1.015625 -0.1875q-0.8125 0 -1.40625 0.125q-0.59375 0.109375 -0.90625 0.21875l-0.1875 -1.265625q0.3125 -0.15625 1.046875 -0.265625q0.734375 -0.109375 1.578125 -0.109375z" fill-rule="nonzero"/></g></svg>